<?xml version="1.0" encoding="UTF-8" standalone="no"?>
<!-- Created with Inkscape (http://www.inkscape.org/) -->

<svg
   width="69.075653mm"
   height="64.105362mm"
   viewBox="0 0 69.075653 64.105362"
   version="1.1"
   id="svg40322"
   inkscape:version="1.2.2 (b0a8486541, 2022-12-01)"
   sodipodi:docname="copapinhao.svg"
   xmlns:inkscape="http://www.inkscape.org/namespaces/inkscape"
   xmlns:sodipodi="http://sodipodi.sourceforge.net/DTD/sodipodi-0.dtd"
   xmlns="http://www.w3.org/2000/svg"
   xmlns:svg="http://www.w3.org/2000/svg">
  <sodipodi:namedview
     id="namedview40324"
     pagecolor="#ffffff"
     bordercolor="#666666"
     borderopacity="1.0"
     inkscape:showpageshadow="2"
     inkscape:pageopacity="0.0"
     inkscape:pagecheckerboard="0"
     inkscape:deskcolor="#d1d1d1"
     inkscape:document-units="mm"
     showgrid="false"
     inkscape:zoom="0.79107744"
     inkscape:cx="90.38306"
     inkscape:cy="27.178123"
     inkscape:window-width="1920"
     inkscape:window-height="1022"
     inkscape:window-x="1920"
     inkscape:window-y="36"
     inkscape:window-maximized="1"
     inkscape:current-layer="layer1" />
  <defs
     id="defs40319">
    <clipPath
       clipPathUnits="userSpaceOnUse"
       id="clipPath39056">
      <path
         d="M 0,841.89 H 595.276 V 0 H 0 Z"
         id="path39054" />
    </clipPath>
  </defs>
  <g
     inkscape:label="Camada 1"
     inkscape:groupmode="layer"
     id="layer1"
     transform="translate(-60.114202,-141.53178)">
    <g
       id="g39050"
       transform="matrix(0.35277777,0,0,-0.35277777,-70.56047,285.48444)">
      <g
         id="g39052"
         clip-path="url(#clipPath39056)">
        <g
           id="g39058"
           transform="translate(560.6191,313.9611)">
          <path
             d="m 0,0 c 0,3.821 -6.259,5.399 -14.152,7.509 -0.307,3.229 -0.813,6.399 -1.498,9.502 6.789,4.403 12.312,7.879 11.132,11.51 -1.18,3.633 -7.616,3.204 -15.769,2.77 -1.286,2.955 -2.751,5.814 -4.376,8.567 5.1,6.288 9.281,11.303 7.035,14.394 -2.247,3.094 -8.243,0.687 -15.873,-2.246 -2.124,2.399 -4.394,4.669 -6.794,6.793 2.908,7.56 5.34,13.626 2.247,15.873 -3.091,2.246 -8.047,-1.889 -14.391,-7.033 -2.753,1.626 -5.615,3.088 -8.57,4.374 0.429,8.08 0.863,14.589 -2.769,15.769 -3.633,1.181 -7.068,-4.281 -11.511,-11.133 -3.102,0.686 -6.274,1.188 -9.501,1.495 -2.091,7.823 -3.689,14.156 -7.511,14.156 -3.821,0 -5.399,-6.262 -7.51,-14.156 -3.227,-0.306 -6.397,-0.812 -9.5,-1.497 -4.402,6.791 -7.879,12.316 -11.511,11.135 -3.634,-1.18 -3.202,-7.618 -2.769,-15.773 -2.955,-1.285 -5.813,-2.749 -8.566,-4.374 -6.289,5.1 -11.305,9.283 -14.396,7.037 -3.093,-2.248 -0.687,-8.244 2.248,-15.876 -2.4,-2.123 -4.668,-4.393 -6.792,-6.791 -7.561,2.908 -13.629,5.34 -15.876,2.247 -2.246,-3.091 1.89,-8.047 7.035,-14.391 -1.627,-2.753 -3.09,-5.614 -4.376,-8.57 -8.08,0.43 -14.588,0.863 -15.769,-2.77 -1.18,-3.631 4.279,-7.065 11.129,-11.507 -0.686,-3.104 -1.189,-6.276 -1.495,-9.505 -7.822,-2.09 -14.152,-3.689 -14.152,-7.509 0,-3.822 6.262,-5.4 14.157,-7.511 0.306,-3.227 0.81,-6.397 1.496,-9.499 -6.791,-4.404 -12.315,-7.88 -11.135,-11.512 1.181,-3.634 7.618,-3.203 15.773,-2.77 1.286,-2.954 2.749,-5.813 4.374,-8.565 -5.099,-6.289 -9.283,-11.304 -7.037,-14.396 2.247,-3.094 8.245,-0.686 15.876,2.248 1.537,-1.736 3.152,-3.403 4.836,-4.998 4.486,0.149 8.996,-0.413 13.419,-1.163 5.381,-0.912 10.697,-2.139 16.002,-3.405 1.44,-0.343 2.885,-0.665 4.341,-0.932 0.42,-0.076 0.842,-0.148 1.263,-0.216 0.096,-0.015 0.494,-0.076 0.67,-0.103 0.652,-0.093 1.312,-0.154 1.969,-0.205 2.372,-0.189 4.769,-0.121 7.143,0.027 3.876,0.243 7.782,0.771 11.664,0.343 0.963,-0.107 1.932,-0.272 2.877,-0.51 5.013,0.716 10.051,1.233 15.098,1.643 9.77,0.791 19.569,1.231 29.323,2.225 0.758,0.113 1.521,0.198 2.292,0.253 -0.032,0.083 -0.064,0.166 -0.096,0.25 2.4,2.123 4.668,4.393 6.792,6.791 7.562,-2.909 13.629,-5.341 15.876,-2.248 2.246,3.092 -1.889,8.047 -7.034,14.392 1.627,2.754 3.09,5.614 4.377,8.569 8.078,-0.429 14.587,-0.862 15.767,2.77 1.18,3.632 -4.279,7.066 -11.129,11.508 0.686,3.103 1.188,6.276 1.496,9.504 C -6.33,-5.419 0,-3.821 0,0"
             style="fill:#231f20;fill-opacity:1;fill-rule:evenodd;stroke:none"
             id="path39060" />
        </g>
        <g
           id="g39062"
           transform="translate(378.3623,227.4396)">
          <path
             d="m 0,0 -6.741,5.874 -0.308,0.677 v 10.916 l 0.263,0.635 1.955,1.955 V 40.02 l -1.955,1.955 -0.263,0.633 v 7.868 l 0.263,0.634 5.93,5.93 0.634,0.263 h 1.703 c -0.06,0.135 -0.114,0.275 -0.161,0.419 -1.361,4.194 4.079,7.732 10.981,12.205 -0.589,2.767 -1.031,5.58 -1.32,8.378 -7.949,2.122 -14.221,3.803 -14.221,8.216 0,4.411 6.268,6.094 14.217,8.216 0.289,2.811 0.731,5.624 1.318,8.382 -6.898,4.471 -12.337,8.007 -10.975,12.201 1.051,3.234 5.32,3.67 9.357,3.67 2.021,0 4.291,-0.12 6.693,-0.249 1.148,2.579 2.443,5.116 3.86,7.559 -5.181,6.387 -9.265,11.431 -6.671,15.001 0.872,1.2 2.253,1.808 4.108,1.808 3.075,0 7.321,-1.63 12.236,-3.523 1.89,2.1 3.9,4.11 5.99,5.988 -2.958,7.683 -5.288,13.75 -1.716,16.345 0.724,0.526 1.563,0.793 2.495,0.793 3.297,0 7.364,-3.292 12.511,-7.468 2.447,1.419 4.983,2.715 7.554,3.858 -0.438,8.21 -0.775,14.692 3.42,16.055 0.416,0.135 0.844,0.203 1.271,0.203 3.676,0 6.883,-4.93 10.934,-11.183 2.77,0.589 5.582,1.032 8.378,1.32 2.122,7.949 3.804,14.221 8.216,14.221 4.411,0 6.095,-6.271 8.217,-14.221 2.809,-0.29 5.623,-0.732 8.379,-1.318 4.052,6.251 7.257,11.183 10.926,11.183 0.429,0 0.859,-0.069 1.278,-0.205 4.193,-1.363 3.859,-7.841 3.421,-16.052 2.577,-1.145 5.114,-2.44 7.557,-3.857 5.147,4.175 9.214,7.469 12.498,7.469 0.934,0 1.776,-0.269 2.504,-0.798 3.571,-2.594 1.243,-8.66 -1.715,-16.342 2.098,-1.887 4.11,-3.897 5.992,-5.99 4.922,1.894 9.173,3.528 12.233,3.528 1.852,0 3.233,-0.61 4.108,-1.814 2.593,-3.569 -1.49,-8.615 -6.672,-15.004 1.421,-2.451 2.716,-4.987 3.859,-7.556 2.42,0.13 4.706,0.251 6.73,0.251 4.02,0 8.27,-0.436 9.322,-3.672 1.361,-4.193 -4.079,-7.731 -10.979,-12.204 0.59,-2.773 1.034,-5.587 1.322,-8.379 7.947,-2.122 14.217,-3.803 14.217,-8.216 0,-4.411 -6.269,-6.093 -14.216,-8.215 -0.291,-2.812 -0.733,-5.625 -1.32,-8.382 6.899,-4.472 12.337,-8.008 10.976,-12.202 -0.132,-0.403 -0.318,-0.775 -0.558,-1.112 l 2.569,-1.059 0.293,-0.196 4.066,-4.065 0.194,-0.291 1.737,-4.192 0.068,-0.344 v -33 l -0.037,-0.257 -0.972,-3.252 -0.109,-0.235 -4.065,-6.2 L 181.4,3.194 175.633,0.571 175.14,0.499 159.617,2.634 159.34,2.719 155.954,4.4 155.719,4.57 153.732,6.558 150.787,3.871 150.101,3.641 136.849,4.86 136.268,5.149 135.924,5.526 135.62,5.239 134.956,4.993 121.704,5.68 121.1,5.958 118.464,8.734 115.976,6.332 115.32,6.081 102.217,6.547 101.608,6.814 101.175,7.256 100.707,6.794 100.065,6.535 86.813,6.69 86.187,6.957 83.876,9.296 81.212,6.555 80.594,6.283 69.863,5.979 69.352,6.122 65.787,8.425 63.658,6.206 63.048,5.931 52.014,5.473 51.355,5.722 49.021,7.962 46.354,5.105 45.76,4.822 32.531,3.909 13.958,1.617 0.712,-0.212 Z"
             style="fill:#231f20;fill-opacity:1;fill-rule:nonzero;stroke:none"
             id="path39064" />
        </g>
        <g
           id="g39066"
           transform="translate(468.3184,408.0548)">
          <path
             d="m 0,0 c -1.371,0 -2.609,-0.522 -3.681,-1.553 -0.835,-0.802 -1.576,-1.926 -2.265,-3.432 -1.118,-2.444 -1.993,-5.627 -2.978,-9.307 -2.421,-0.269 -4.85,-0.651 -7.251,-1.144 -1.792,2.763 -3.492,5.347 -5.127,7.267 -1.393,1.636 -3.555,3.812 -6.226,3.812 -0.522,0 -1.042,-0.083 -1.548,-0.248 -1.304,-0.424 -2.32,-1.303 -3.022,-2.614 -0.546,-1.022 -0.904,-2.319 -1.093,-3.965 -0.309,-2.668 -0.158,-5.963 0.044,-9.763 -2.22,-1.008 -4.411,-2.127 -6.54,-3.339 -5.059,4.101 -9.092,7.28 -12.597,7.28 -1.125,0 -2.142,-0.325 -3.023,-0.965 -1.109,-0.805 -1.804,-1.957 -2.065,-3.42 -0.204,-1.14 -0.144,-2.485 0.184,-4.109 0.533,-2.637 1.698,-5.729 3.066,-9.289 -1.797,-1.641 -3.533,-3.378 -5.182,-5.183 -4.756,1.829 -8.868,3.363 -11.985,3.363 -2.158,0 -3.784,-0.733 -4.834,-2.178 -0.806,-1.109 -1.111,-2.418 -0.908,-3.891 0.159,-1.147 0.632,-2.407 1.445,-3.85 1.318,-2.34 3.379,-4.917 5.775,-7.874 -1.21,-2.125 -2.33,-4.318 -3.34,-6.543 -2.189,0.116 -4.257,0.216 -6.128,0.216 -2.703,0 -4.664,-0.218 -6.17,-0.687 -2.118,-0.659 -3.477,-1.871 -4.039,-3.602 -0.424,-1.303 -0.31,-2.643 0.339,-3.98 0.505,-1.042 1.343,-2.094 2.563,-3.215 1.977,-1.817 4.731,-3.632 7.922,-5.701 -0.49,-2.394 -0.873,-4.824 -1.142,-7.257 -3.659,-0.977 -6.826,-1.85 -9.274,-2.968 -1.513,-0.691 -2.64,-1.432 -3.447,-2.267 -1.039,-1.074 -1.567,-2.316 -1.567,-3.688 0,-1.371 0.523,-2.61 1.552,-3.681 0.804,-0.835 1.926,-1.577 3.432,-2.266 2.444,-1.118 5.628,-1.993 9.308,-2.978 0.269,-2.421 0.652,-4.851 1.143,-7.251 -3.177,-2.061 -5.919,-3.868 -7.902,-5.688 -1.224,-1.124 -2.067,-2.178 -2.578,-3.222 -0.53,-1.085 -0.709,-2.17 -0.534,-3.236 h -0.505 l -1.268,-0.525 -5.931,-5.93 -0.525,-1.269 v -7.867 l 0.525,-1.268 1.692,-1.692 v -19.22 l -1.692,-1.693 -0.525,-1.268 v -10.916 l 0.616,-1.353 6.74,-5.874 1.425,-0.425 13.239,1.828 18.543,2.289 13.204,0.912 1.189,0.565 2.046,2.192 1.678,-1.61 1.317,-0.498 11.034,0.457 1.221,0.551 1.616,1.684 2.942,-1.901 1.026,-0.286 10.729,0.304 1.235,0.543 2.027,2.084 1.668,-1.687 1.255,-0.532 13.252,-0.157 1.125,0.456 1.004,-0.443 13.104,-0.466 1.31,0.502 1.836,1.775 2.014,-2.121 1.208,-0.556 13.253,-0.687 0.914,0.338 0.942,-0.467 13.253,-1.221 1.373,0.462 2.311,2.108 1.382,-1.382 0.471,-0.338 3.384,-1.681 0.554,-0.171 15.524,-2.135 0.987,0.145 5.766,2.623 0.758,0.649 4.066,6.2 0.218,0.47 0.971,3.252 0.075,0.514 v 33 l -0.136,0.686 -1.738,4.194 -0.388,0.582 -4.066,4.065 -0.585,0.39 -1.643,0.677 c 0.051,0.126 0.099,0.255 0.142,0.387 0.424,1.305 0.31,2.644 -0.339,3.982 -0.505,1.042 -1.344,2.093 -2.564,3.215 -1.976,1.817 -4.73,3.631 -7.921,5.701 0.489,2.392 0.872,4.823 1.142,7.255 3.659,0.979 6.826,1.85 9.274,2.969 1.513,0.691 2.64,1.433 3.447,2.267 1.039,1.074 1.567,2.315 1.567,3.688 0,1.371 -0.523,2.61 -1.552,3.681 -0.804,0.835 -1.926,1.576 -3.433,2.266 -2.442,1.118 -5.625,1.993 -9.303,2.976 -0.269,2.419 -0.653,4.85 -1.145,7.254 3.176,2.061 5.918,3.867 7.901,5.688 1.223,1.124 2.067,2.177 2.577,3.22 0.656,1.343 0.773,2.686 0.349,3.991 -1.228,3.782 -5.832,4.291 -10.174,4.291 -1.875,0 -3.959,-0.101 -6.164,-0.218 -1.007,2.217 -2.127,4.409 -3.341,6.54 2.385,2.942 4.435,5.509 5.758,7.853 0.818,1.448 1.294,2.711 1.456,3.861 0.21,1.48 -0.093,2.794 -0.9,3.904 -1.053,1.449 -2.679,2.183 -4.834,2.183 -3.102,10e-4 -7.22,-1.536 -11.981,-3.367 -1.644,1.8 -3.382,3.537 -5.185,5.185 1.361,3.539 2.52,6.616 3.055,9.258 0.33,1.63 0.392,2.978 0.192,4.122 -0.259,1.472 -0.953,2.629 -2.063,3.435 -0.885,0.643 -1.905,0.969 -3.032,0.969 -3.492,0 -7.525,-3.18 -12.585,-7.281 -2.126,1.211 -4.317,2.33 -6.542,3.34 0.201,3.778 0.35,7.056 0.042,9.729 -0.189,1.651 -0.545,2.953 -1.09,3.98 -0.701,1.32 -1.718,2.205 -3.024,2.629 -0.509,0.165 -1.031,0.249 -1.556,0.249 -2.665,10e-4 -4.815,-2.161 -6.201,-3.786 -1.636,-1.921 -3.275,-4.413 -5.142,-7.291 -2.392,0.489 -4.823,0.871 -7.253,1.141 -0.979,3.659 -1.85,6.827 -2.969,9.277 -0.691,1.513 -1.433,2.64 -2.268,3.449 C 2.614,-0.527 1.373,0 0,0 m 0,-1.794 c 3.821,0 5.42,-6.333 7.511,-14.156 3.227,-0.307 6.399,-0.809 9.501,-1.494 4.034,6.219 7.235,11.295 10.509,11.294 0.333,0 0.666,-0.052 1.001,-0.162 3.633,-1.18 3.199,-7.689 2.77,-15.769 2.955,-1.286 5.816,-2.748 8.569,-4.374 5.13,4.159 9.352,7.659 12.415,7.659 0.725,0 1.385,-0.196 1.977,-0.626 3.093,-2.247 0.661,-8.312 -2.247,-15.873 2.4,-2.124 4.67,-4.393 6.794,-6.793 5.107,1.964 9.481,3.692 12.49,3.691 1.486,0 2.64,-0.422 3.383,-1.445 2.246,-3.091 -1.937,-8.105 -7.035,-14.393 1.625,-2.753 3.09,-5.613 4.376,-8.568 2.657,0.142 5.132,0.282 7.301,0.282 4.489,0 7.672,-0.602 8.468,-3.051 1.18,-3.632 -4.344,-7.108 -11.133,-11.511 0.686,-3.103 1.192,-6.272 1.498,-9.502 7.894,-2.109 14.153,-3.687 14.153,-7.509 0,-3.821 -6.33,-5.419 -14.152,-7.51 -0.307,-3.228 -0.809,-6.401 -1.496,-9.503 6.851,-4.443 12.31,-7.876 11.13,-11.509 -0.232,-0.716 -0.674,-1.274 -1.292,-1.705 l 3.816,-1.573 4.065,-4.065 1.737,-4.193 v -33 l -0.971,-3.252 -4.065,-6.2 -5.767,-2.624 -15.523,2.135 -3.386,1.682 -2.592,2.594 -3.578,-3.264 -13.252,1.22 -0.961,1.053 -0.967,-0.918 -13.253,0.686 -3.259,3.433 -3.139,-3.031 -13.104,0.466 -1.064,1.083 -1.108,-1.095 -13.252,0.157 -2.954,2.989 -3.302,-3.398 -10.73,-0.304 -4.186,2.705 -2.641,-2.753 -11.034,-0.458 -2.992,2.87 -3.287,-3.521 -13.253,-0.915 -18.603,-2.297 -13.253,-1.829 -6.741,5.874 v 10.916 l 2.217,2.217 v 20.707 l -2.217,2.217 v 7.867 l 5.93,5.93 h 3.529 c -0.535,0.415 -0.92,0.939 -1.133,1.594 -1.18,3.633 4.344,7.108 11.135,11.512 -0.686,3.102 -1.19,6.272 -1.497,9.5 -7.894,2.11 -14.156,3.688 -14.156,7.51 0,3.821 6.33,5.419 14.152,7.509 0.306,3.23 0.809,6.401 1.495,9.505 -6.85,4.442 -12.309,7.876 -11.129,11.508 0.796,2.449 4.013,3.05 8.503,3.05 2.168,0 4.633,-0.141 7.265,-0.281 1.286,2.956 2.749,5.818 4.376,8.571 -5.144,6.343 -9.28,11.299 -7.034,14.39 0.741,1.02 1.896,1.439 3.383,1.439 3.024,0 7.423,-1.736 12.493,-3.686 2.124,2.399 4.392,4.668 6.792,6.791 -2.935,7.632 -5.342,13.628 -2.248,15.876 0.588,0.427 1.245,0.622 1.968,0.622 3.077,0 7.335,-3.529 12.428,-7.659 2.752,1.625 5.611,3.089 8.566,4.374 -0.434,8.155 -0.865,14.593 2.769,15.773 0.332,0.109 0.662,0.161 0.993,0.161 3.282,0 6.518,-5.125 10.518,-11.295 3.103,0.684 6.273,1.19 9.5,1.496 2.111,7.894 3.689,14.156 7.51,14.156"
             style="fill:#656263;fill-opacity:1;fill-rule:nonzero;stroke:none"
             id="path39068" />
        </g>
        <g
           id="g39070"
           transform="translate(507.9033,331.837)">
          <path
             d="m 0,0 c -0.475,-0.474 -1.182,-0.404 -1.732,-0.756 -2.814,-1.794 -5.685,-3.5 -8.471,-5.335 -2.719,-1.79 -5.62,-3.263 -8.38,-4.984 -2.231,-1.392 -4.362,-2.983 -6.803,-4.05 -0.553,-0.242 -1.103,-0.902 -0.777,-1.57 0.272,-0.556 0.882,-0.556 1.608,-0.469 2.345,0.28 4.502,1.231 6.707,1.886 4.249,1.26 8.509,2.497 12.762,3.752 2.4,0.708 4.783,1.475 7.169,2.233 0.599,0.19 1.38,0.284 1.714,0.709 0.455,0.579 -0.412,1.073 -0.613,1.647 C 2.438,-4.812 1.535,-2.739 0.657,-0.662 0.546,-0.398 0.521,0.076 0,0 m 5.808,-14.557 c -1.522,0.188 -2.534,-0.376 -3.636,-0.487 -2.727,-0.275 -5.411,-0.964 -8.138,-1.233 -1.493,-0.149 -2.957,-0.464 -4.447,-0.619 -1.699,-0.175 -3.409,-0.526 -5.104,-0.791 -1.763,-0.277 -3.51,-0.675 -5.263,-0.905 -2.527,-0.33 -5.064,-0.546 -7.558,-1.107 -0.562,-0.126 -1.158,-0.139 -1.739,-0.14 -0.428,0 -1.017,-0.177 -1.103,0.521 -0.069,0.555 -0.28,1.143 0.309,1.611 1.772,1.408 3.543,2.818 5.278,4.271 1.307,1.096 2.743,2.032 3.939,3.267 1.21,1.251 2.801,2.014 4.108,3.162 2.875,2.528 5.963,4.809 8.888,7.266 1.749,1.468 3.607,2.81 5.316,4.337 2.018,1.801 4.211,3.408 6.321,5.109 0.639,0.516 1.201,0.114 1.756,-0.133 1.3,-0.578 2.592,-1.174 3.87,-1.8 0.905,-0.443 1.809,-0.472 2.615,0.097 0.794,0.561 1.158,0.225 1.429,-0.489 0.53,-1.392 1.063,-2.783 1.607,-4.166 0.909,-2.316 1.814,-4.637 2.719,-6.957 0.61,-1.569 0.481,-1.978 -1.089,-2.43 -0.86,-0.247 -1.407,-0.805 -1.647,-1.417 -0.453,-1.158 -1.03,-2.289 -1.343,-3.486 -0.549,-2.102 -0.637,-2.464 -2.574,-2.736 -1.636,-0.228 -3.28,-0.424 -4.514,-0.745"
             style="fill:#393536;fill-opacity:1;fill-rule:nonzero;stroke:none"
             id="path39072" />
        </g>
        <g
           id="g39074"
           transform="translate(508.0186,286.4171)">
          <path
             d="M 0,0 C 0.38,-0.002 0.539,0.182 0.667,0.595 1.448,3.111 2.485,5.54 3.211,8.081 3.431,8.849 3.372,9.206 2.607,9.222 1.309,9.248 0.231,9.981 -0.978,10.3 c -1.56,0.409 -3.119,0.896 -4.675,1.357 -1.803,0.533 -3.644,0.941 -5.435,1.509 -0.858,0.273 -1.737,0.522 -2.569,0.847 -2.077,0.812 -4.297,1.09 -6.385,1.897 -1.676,0.65 -3.528,0.824 -5.243,1.478 -0.858,0.326 -1.318,-0.274 -1.08,-1.172 0.235,-0.897 0.949,-1.362 1.723,-1.591 1.586,-0.471 2.516,-2.124 4.255,-2.273 0.041,-0.004 0.081,-0.081 0.115,-0.128 1.019,-1.46 2.752,-1.864 4.17,-2.695 1.764,-1.035 3.563,-2.064 5.338,-3.065 1.768,-0.997 3.619,-2.04 5.226,-3.38 C -4.167,1.94 -2.239,1.689 -0.991,0.316 -0.754,0.056 -0.396,-0.043 0,0 m 12.458,-8.028 c -0.556,0.216 -1.15,0.29 -1.511,0.619 C 9.756,-6.318 8.635,-6.845 7.555,-7.484 6.597,-8.051 5.62,-8.496 4.511,-8.614 4.263,-8.641 3.991,-8.691 3.916,-8.904 3.457,-10.195 2.933,-9.64 2.312,-9.025 c -1.691,1.673 -3.717,2.942 -5.572,4.413 -3.102,2.462 -6.18,4.947 -9.25,7.45 -1.672,1.362 -3.435,2.656 -5.112,4.03 -2.187,1.79 -4.51,3.4 -6.629,5.288 -1.36,1.213 -2.83,2.356 -4.34,3.407 -0.895,0.623 -1.584,1.497 -2.583,1.991 -0.544,0.269 -0.636,0.838 -0.495,1.374 0.153,0.585 0.64,0.914 1.203,0.734 1.584,-0.502 3.314,-0.099 4.855,-0.844 1.071,-0.517 2.26,-0.135 3.4,-0.414 1.972,-0.482 4.062,-0.422 6.035,-0.739 2.29,-0.368 4.626,-0.572 6.906,-1.116 1.881,-0.448 3.863,-0.467 5.791,-0.735 2.45,-0.34 4.893,-0.689 7.327,-1.173 1.481,-0.294 3.016,-0.767 4.571,-0.656 1.182,0.084 2.26,-0.38 3.404,-0.454 0.359,-0.022 0.651,-0.153 0.791,-0.56 0.553,-1.607 1.331,-3.167 1.637,-4.818 0.215,-1.159 0.865,-1.551 1.716,-1.899 1.384,-0.565 1.532,-0.766 1.009,-2.155 -1.36,-3.617 -2.757,-7.218 -4.132,-10.828 -0.142,-0.374 -0.23,-0.768 -0.386,-1.299"
             style="fill:#393536;fill-opacity:1;fill-rule:nonzero;stroke:none"
             id="path39076" />
        </g>
        <g
           id="g39078"
           transform="translate(455.0254,302.8771)">
          <path
             d="m 0,0 c -0.084,0.653 -1.313,1.179 -2.194,0.847 -0.8,-0.302 -1.567,-0.679 -2.405,-0.893 -2.592,-0.661 -5.142,-1.459 -7.692,-2.274 -1.621,-0.519 -3.237,-1.176 -4.88,-1.493 -2.352,-0.456 -4.577,-1.261 -6.858,-1.909 -1.926,-0.546 -3.832,-1.188 -5.787,-1.599 -0.963,-0.202 -1.001,-0.496 -0.663,-1.253 0.639,-1.429 1.229,-2.88 1.839,-4.322 0.407,-0.96 0.858,-1.906 1.205,-2.887 0.282,-0.791 0.718,-0.813 1.338,-0.454 0.25,0.144 0.507,0.278 0.754,0.429 2.051,1.259 4.041,2.633 6.167,3.748 1.727,0.906 3.298,2.049 5.017,2.954 3.024,1.591 5.644,3.836 8.728,5.348 1.656,0.813 3.189,1.873 4.778,2.821 C -0.293,-0.723 0.046,-0.496 0,0 m -31.855,-2.022 c 1.232,0.237 2.483,0.412 3.69,0.744 0.46,0.126 0.903,0.244 1.353,0.191 1.814,-0.215 3.566,0.352 5.291,0.641 2.25,0.378 4.524,0.509 6.753,0.909 2.019,0.361 4.08,0.539 6.051,0.973 2.742,0.602 5.563,0.542 8.282,1.312 C 0.673,3.063 1.942,2.979 3.116,3.293 3.768,3.467 4.531,3.414 4.75,2.69 4.946,2.043 4.862,1.447 4.075,0.872 1.185,-1.241 -1.609,-3.491 -4.37,-5.774 c -2.246,-1.858 -4.518,-3.683 -6.759,-5.544 -3.525,-2.927 -7.249,-5.608 -10.728,-8.576 -1.558,-1.329 -3.374,-2.348 -4.714,-3.98 -0.656,-0.799 -1.759,-1.234 -2.669,-1.818 -0.828,-0.531 -1.632,-0.287 -2.262,0.296 -1.204,1.113 -2.803,1.362 -4.227,1.923 -0.611,0.242 -1.604,-0.286 -2.372,-0.689 -0.612,-0.322 -1.064,-0.375 -1.289,0.657 -0.327,1.506 -1.015,2.936 -1.58,4.386 -0.903,2.32 -1.777,4.655 -2.775,6.935 -0.419,0.958 -0.165,1.488 0.706,1.737 1.508,0.43 1.93,1.629 2.313,2.926 0.346,1.168 0.73,2.33 1.173,3.464 0.335,0.856 1.135,1.059 1.969,1.2 1.902,0.323 3.798,0.69 5.696,1.04 z"
             style="fill:#393536;fill-opacity:1;fill-rule:nonzero;stroke:none"
             id="path39080" />
        </g>
        <g
           id="g39082"
           transform="translate(458.209,257.3156)">
          <path
             d="m 0,0 c -0.053,-0.057 -0.137,-0.111 -0.166,-0.187 -0.037,-0.094 -0.03,-0.205 -0.042,-0.309 0.069,0.078 0.16,0.147 0.201,0.238 C 0.026,-0.184 0,-0.082 0,0 M 4.877,36.47 C 4.646,36.844 4.863,37.589 4.047,37.715 3.348,37.822 3.085,37.38 2.806,36.824 1.823,34.869 0.797,32.936 -0.239,31.007 -1.305,29.024 -2.553,27.123 -3.438,25.065 -4.22,23.247 -5.261,21.567 -6.187,19.854 c -1.478,-2.74 -2.884,-5.528 -4.454,-8.223 -1.215,-2.09 -1.142,-2.132 1.003,-3.083 0.105,-0.047 0.186,-0.148 0.29,-0.194 1.78,-0.797 3.558,-1.596 5.343,-2.378 0.711,-0.312 1.04,-0.178 1.273,0.708 0.78,2.962 1.407,5.964 2.213,8.915 0.833,3.05 1.505,6.142 2.453,9.168 0.929,2.969 1.633,6.014 2.308,9.054 0.188,0.848 0.536,1.658 0.635,2.649 M -7.009,-8.632 c -1.097,0.267 -2.319,0.914 -3.575,1.47 -2.249,0.996 -4.383,2.241 -6.787,2.902 -1.35,0.371 -1.546,1.088 -1.029,2.422 0.41,1.061 0.68,1.978 -0.07,3.225 -0.722,1.2 -1.084,2.69 -1.724,4.013 -0.294,0.61 -0.269,1.288 0.239,1.942 2.367,3.045 4.536,6.24 6.758,9.387 2.203,3.122 4.376,6.282 6.596,9.385 2.476,3.458 4.873,6.984 7.436,10.388 1.093,1.45 2.514,2.738 3.134,4.563 0.17,0.499 0.769,0.842 1.132,1.289 0.345,0.427 0.711,0.893 1.289,0.558 C 6.843,42.65 7.172,42.083 7.067,41.581 6.575,39.21 6.436,36.795 6.105,34.404 5.9,32.919 5.785,31.421 5.575,29.937 5.322,28.141 5.014,26.354 4.728,24.562 4.536,23.362 4.505,22.149 4.317,20.94 3.759,17.354 3.511,13.719 2.98,10.127 2.422,6.349 1.946,2.552 1.508,-1.233 1.253,-3.438 0.364,-4.274 -1.557,-4.644 -2.327,-4.791 -3.076,-5.187 -3.771,-5.49 -4.596,-5.85 -5.682,-6.391 -5.735,-7.707 -5.755,-8.168 -6.022,-8.761 -7.009,-8.632"
             style="fill:#393536;fill-opacity:1;fill-rule:nonzero;stroke:none"
             id="path39084" />
        </g>
        <g
           id="g39086"
           transform="translate(427.9346,332.048)">
          <path
             d="m 0,0 c -1.322,-2.323 -2.068,-4.946 -2.958,-7.516 -0.462,-1.335 -0.327,-1.614 0.985,-2.013 1.135,-0.347 2.31,-0.582 3.411,-1.009 1.833,-0.711 3.745,-1.268 5.612,-1.745 2.033,-0.521 3.959,-1.423 6.017,-1.735 1.478,-0.223 2.722,-1.021 4.194,-1.274 1.383,-0.238 3.073,-0.359 4.064,-1.11 1.386,-1.051 2.936,-0.487 4.259,-1.179 0.396,-0.207 0.976,0.078 1.124,0.586 0.125,0.429 0.197,1.124 -0.247,1.275 -1.279,0.436 -2.044,1.611 -3.286,2.082 -2.915,1.107 -5.425,3.001 -7.99,4.665 -2.115,1.372 -4.369,2.545 -6.438,4.01 C 7.64,-4.18 6.472,-3.346 5.188,-2.815 3.332,-2.047 1.955,-0.475 0,0 m 29.9,-20.049 c -1.034,0.369 -2.356,0.443 -3.639,0.679 -1.678,0.309 -3.449,0.207 -5.028,0.757 -1.89,0.658 -3.865,0.384 -5.754,0.937 -1.126,0.329 -2.384,0.414 -3.559,0.52 -2.428,0.217 -4.803,0.733 -7.217,0.991 -2.513,0.268 -5.009,0.7 -7.506,1.058 -2.371,0.337 -4.733,0.806 -7.127,1.042 -1.032,0.101 -1.796,0.583 -2.023,1.619 -0.353,1.601 -1.323,2.948 -1.76,4.514 -0.301,1.08 -1.026,1.896 -2.178,1.969 -1.132,0.071 -1.135,0.636 -0.797,1.38 0.592,1.311 1.079,2.664 1.677,3.975 0.932,2.036 1.619,4.184 2.409,6.285 0.041,0.109 0.069,0.223 0.11,0.332 0.703,1.867 0.72,1.912 2.636,1.233 1.491,-0.528 2.502,0.516 3.683,0.989 0.339,0.136 0.547,0.548 0.957,0.71 2.165,0.851 2.201,0.918 4.753,-1.123 1.886,-1.509 3.729,-3.078 5.55,-4.672 1.867,-1.633 3.972,-3.029 5.86,-4.654 1.549,-1.334 3.317,-2.382 4.806,-3.756 2.162,-1.996 4.417,-3.902 6.749,-5.656 2.665,-2.004 5.115,-4.273 7.859,-6.165 0.285,-0.197 0.589,-0.352 0.831,-0.615 0.539,-0.582 0.613,-1.292 0.358,-1.957 -0.247,-0.643 -0.917,-0.29 -1.65,-0.392"
             style="fill:#393536;fill-opacity:1;fill-rule:nonzero;stroke:none"
             id="path39088" />
        </g>
        <g
           id="g39090"
           transform="translate(473.1455,325.0675)">
          <path
             d="m 0,0 c -0.32,-1 0.061,-1.339 0.589,-1.517 0.448,-0.149 0.97,-0.216 1.156,0.402 0.343,1.137 1.158,1.997 1.703,3.009 1.635,3.038 3.176,6.125 4.765,9.187 1.085,2.091 2.093,4.251 3.295,6.244 1.704,2.826 2.995,5.863 4.76,8.645 0.329,0.519 0.244,0.894 -0.457,1.186 -2.441,1.02 -4.849,2.119 -7.251,3.226 C 8.025,30.628 7.733,30.707 7.577,30.003 6.846,26.706 5.918,23.458 5.101,20.187 3.985,15.723 2.849,11.263 1.691,6.81 1.072,4.43 0.274,2.097 0,0 m -2.451,-4.848 c 0.767,1.285 0.265,2.927 0.777,4.46 0.391,1.168 0.341,2.492 0.553,3.745 0.487,2.899 0.772,5.832 1.145,8.748 0.325,2.527 0.725,5.048 0.993,7.585 0.302,2.871 0.84,5.716 1.092,8.589 0.293,3.335 1.017,6.605 1.353,9.93 0.069,0.685 0.529,1.231 1.142,1.428 1.308,0.418 2.453,1.279 3.749,1.581 1.251,0.292 1.811,0.989 2.202,2.038 0.14,0.377 0.247,0.769 0.43,1.124 0.189,0.364 0.36,0.581 0.91,0.278 2.588,-1.426 5.417,-2.317 8.132,-3.459 1.059,-0.445 2.027,-1.073 3.122,-1.426 0.778,-0.25 0.857,-0.848 0.438,-1.368 -0.992,-1.232 -0.424,-2.351 0.079,-3.511 0.46,-1.062 0.761,-2.223 1.382,-3.176 C 25.907,30.4 25.346,29.431 24.569,28.476 23.424,27.065 22.375,25.594 21.354,24.091 19.966,22.05 18.438,20.104 16.998,18.097 14.92,15.201 13.007,12.174 10.758,9.42 8.992,7.257 7.694,4.79 5.898,2.645 4.979,1.545 4.293,0.168 3.413,-1.026 2.125,-2.775 0.805,-4.501 -0.293,-6.383 c -0.269,-0.462 -0.636,-0.896 -1.255,-0.755 -0.531,0.12 -0.583,0.695 -0.782,1.086 -0.146,0.287 -0.079,0.682 -0.121,1.204"
             style="fill:#393536;fill-opacity:1;fill-rule:nonzero;stroke:none"
             id="path39092" />
        </g>
        <g
           id="g39094"
           transform="translate(460.6904,349.0099)">
          <path
             d="M 0,0 C 0.162,0.157 0.047,-0.162 -0.062,0.045 -0.084,0.085 -0.155,0.098 -0.204,0.123 -0.181,0.082 -0.167,0.027 -0.132,0.004 -0.103,-0.016 -0.049,0 0,0 M -6.101,6.679 C -6.226,6.574 -6.343,6.398 -6.493,6.362 -7.514,6.119 -8.387,5.509 -9.315,5.089 c -1.5,-0.678 -3.099,-1.189 -4.497,-2.113 -0.393,-0.261 -0.656,-0.342 -0.357,-0.88 1.715,-3.083 3.482,-6.143 5.057,-9.298 1.055,-2.116 2.64,-3.973 3.168,-6.354 0.046,-0.209 0.269,-0.374 0.387,-0.573 0.819,-1.378 1.754,-2.703 2.414,-4.153 0.925,-2.031 2.184,-3.892 2.975,-5.989 0.137,-0.364 0.439,-0.707 0.749,-0.953 0.345,-0.272 0.842,-0.63 1.236,-0.352 0.504,0.355 0.996,0.929 0.679,1.627 -0.466,1.02 -0.387,2.21 -0.785,3.147 -1.02,2.405 -1.239,4.979 -1.966,7.436 -0.888,2.995 -1.595,6.044 -2.391,9.067 -0.293,1.111 -0.781,2.197 -0.898,3.324 C -3.8,1.471 -5.006,3.651 -5.346,6.062 -5.395,6.409 -5.66,6.684 -6.101,6.679 m 9.652,-30.578 c 0.144,-0.932 0.303,-2.236 0.56,-3.52 0.163,-0.81 0.201,-1.613 0.223,-2.431 0.02,-0.764 -0.679,-0.862 -1.067,-1.236 -0.154,-0.148 -0.422,-0.036 -0.549,0.219 -1.844,3.674 -4.756,6.629 -6.821,10.166 -1.058,1.815 -2.482,3.419 -3.746,5.114 -1.433,1.925 -2.647,4.006 -4.189,5.855 -1.766,2.115 -3.033,4.58 -4.82,6.711 -0.958,1.144 -1.843,2.512 -2.607,3.9 -0.546,0.99 -1.31,1.998 -2.166,2.848 -0.416,0.413 -0.731,0.885 -0.98,1.428 -0.317,0.692 -0.449,1.261 0.152,1.904 0.723,0.773 0.934,1.82 1.239,2.806 0.657,2.116 0.71,2.496 0.161,4.459 -0.223,0.798 -0.313,1.201 0.696,1.601 2.552,1.012 5.006,2.272 7.527,3.374 1.084,0.473 2.209,0.927 3.239,1.526 0.432,0.25 0.683,0.222 0.78,-0.177 0.638,-2.63 3.004,-3.093 5.004,-3.907 2.502,-1.016 2.589,-1.045 2.719,-3.709 0.09,-1.835 0.576,-3.641 0.713,-5.454 0.188,-2.497 0.734,-4.924 1.03,-7.394 0.348,-2.899 0.452,-5.819 1.093,-8.697 0.343,-1.539 0.228,-3.199 0.52,-4.792 0.468,-2.561 0.746,-5.149 0.896,-7.749 0.049,-0.842 0.709,-1.57 0.393,-2.845"
             style="fill:#393536;fill-opacity:1;fill-rule:nonzero;stroke:none"
             id="path39096" />
        </g>
        <g
           id="g39098"
           transform="translate(473.1924,293.5089)">
          <path
             d="m 0,0 c 0.466,-3.432 1.804,-6.651 2.448,-10.045 0.374,-1.968 0.827,-3.951 1.539,-5.814 0.57,-1.489 0.507,-3.06 1.035,-4.541 0.694,-1.943 1.198,-3.954 1.739,-5.948 0.314,-1.16 0.527,-2.346 0.814,-3.513 0.198,-0.808 0.529,-1.159 1.466,-0.675 1.786,0.921 3.617,1.778 5.491,2.501 2.931,1.129 2.178,0.589 1.248,3.388 -0.068,0.206 -0.338,0.34 -0.424,0.545 -0.45,1.078 -1.333,1.89 -1.748,2.998 -1.122,2.991 -2.893,5.67 -4.444,8.427 -1.031,1.833 -2.056,3.726 -3.037,5.573 -1.19,2.235 -2.545,4.407 -3.559,6.748 C 2.295,0.275 1.774,0.809 1.33,1.356 1.009,1.753 0.669,1.734 0.324,1.313 -0.003,0.913 -0.074,0.485 0,0 m 2.57,-30.743 c 0.135,1.805 -0.359,3.126 -0.5,4.496 -0.299,2.908 -0.629,5.832 -1.164,8.699 -0.433,2.33 -0.588,4.694 -1.091,7.011 -0.282,1.298 -0.262,2.651 -0.41,3.975 -0.248,2.236 -0.567,4.473 -0.926,6.678 -0.255,1.571 -0.262,3.202 -0.761,4.737 -0.336,1.033 0.236,1.502 1.07,1.853 0.388,0.162 0.704,0.134 0.819,-0.303 C 0,4.925 1.091,3.837 1.936,2.682 4.067,-0.235 6.174,-3.171 8.3,-6.091 c 1.006,-1.38 2.154,-2.768 3.077,-4.16 1.373,-2.069 2.974,-3.962 4.346,-6.024 1.657,-2.49 3.293,-5.016 5.132,-7.362 1.501,-1.914 2.781,-3.971 4.28,-5.875 0.299,-0.379 0.363,-0.746 0.17,-1.12 -0.923,-1.788 -1.033,-3.9 -2.234,-5.574 -0.242,-0.338 -0.126,-0.624 0.03,-0.967 0.212,-0.473 0.298,-1 0.489,-1.484 0.249,-0.638 0.246,-1 -0.547,-1.317 -0.847,-0.339 -1.668,-0.776 -2.517,-1.141 -2.675,-1.153 -5.339,-2.331 -8.007,-3.504 -0.617,-0.271 -1.427,-0.563 -1.488,0.391 -0.153,2.392 -2.15,2.822 -3.719,3.554 -0.715,0.334 -1.459,0.842 -2.375,0.867 -0.647,0.018 -1.058,0.548 -1.232,1.245 -0.237,0.959 -0.449,1.906 -0.471,2.904 -0.039,1.792 -0.446,3.547 -0.664,4.915"
             style="fill:#393536;fill-opacity:1;fill-rule:nonzero;stroke:none"
             id="path39100" />
        </g>
        <g
           id="g39102"
           transform="translate(471.3809,309.4034)">
          <path
             d="M 0,0 C -0.879,0.41 -1.517,0.335 -2.115,0.293 -2.823,0.244 -3.034,0.529 -3.052,1.191 -3.072,1.936 -2.863,2.703 -3.202,3.473 -3.543,2.832 -3.374,2.177 -3.369,1.562 -3.362,0.609 -3.643,0.186 -4.68,0.259 c -0.489,0.035 -1.234,0.459 -1.6,-0.508 0.425,0 0.768,0.007 1.111,-0.001 1.741,-0.041 1.729,-0.043 1.795,-1.732 0.02,-0.512 -0.157,-1.049 0.165,-1.593 0.067,0.186 0.147,0.326 0.165,0.473 0.1,0.859 -0.333,1.881 0.216,2.547 C -2.251,0.146 -1.152,-0.463 0,0 M -3.861,-6.963 C -7.327,-7.379 -9.62,-3.237 -9.652,-0.655 -9.708,3.718 -6.866,6.43 -3.885,6.397 0.262,6.353 3.312,2.878 3.136,-0.399 2.938,-4.096 -0.002,-7.132 -3.861,-6.963"
             style="fill:#393536;fill-opacity:1;fill-rule:nonzero;stroke:none"
             id="path39104" />
        </g>
        <g
           id="g39106"
           transform="translate(528.1504,303.8507)">
          <path
             d="m 0,0 c -0.235,0.027 -0.425,0.119 -0.541,0.357 -0.8,1.636 -2.218,2.731 -3.545,3.871 -0.619,0.531 -0.616,1.002 -0.232,1.473 1.156,1.416 2.392,2.767 3.587,4.153 0.377,0.437 0.886,0.386 1.292,0.23 C 1.791,9.609 3.058,9.271 4.237,8.599 6.126,7.522 8.16,6.701 10.139,5.785 10.467,5.634 11.057,5.92 11.089,5.297 11.115,4.764 10.704,4.427 10.254,4.304 9.36,4.061 8.584,3.609 7.768,3.201 6.375,2.504 4.852,2.188 3.492,1.265 2.551,0.626 1.124,0.587 0,0"
             style="fill:#393536;fill-opacity:1;fill-rule:nonzero;stroke:none"
             id="path39108" />
        </g>
        <g
           id="g39110"
           transform="translate(472.8906,373.4552)">
          <path
             d="m 0,0 c 0.042,-0.562 -0.179,-0.845 -0.417,-1.099 -1.135,-1.203 -2.283,-2.394 -3.422,-3.593 -0.52,-0.548 -1.072,-0.705 -1.652,-0.113 -1.264,1.29 -2.523,2.585 -3.763,3.897 -0.421,0.445 -0.287,0.96 -0.059,1.466 1.438,3.21 2.357,6.63 3.968,9.773 0.188,0.366 0.302,0.847 0.733,0.868 0.516,0.026 0.58,-0.609 0.663,-0.906 C -3.408,8.339 -2.36,6.589 -1.854,4.598 -1.502,3.21 -0.637,1.903 -0.187,0.48 -0.117,0.264 -0.021,0.056 0,0"
             style="fill:#393536;fill-opacity:1;fill-rule:nonzero;stroke:none"
             id="path39112" />
        </g>
        <g
           id="g39114"
           transform="translate(429.3516,264.6368)">
          <path
             d="m 0,0 c -0.432,-0.874 -0.176,-1.899 -0.146,-2.915 0.019,-0.695 -0.221,-1.154 -0.894,-1.524 -2.314,-1.273 -4.705,-2.38 -7.169,-3.299 -0.891,-0.332 -1.564,-0.949 -2.406,-1.307 -0.419,-0.178 -0.777,-0.188 -1.108,0.157 -0.313,0.327 -0.116,0.609 0.022,0.941 1.417,3.417 2.822,6.839 4.209,10.267 0.236,0.582 0.379,0.649 1.151,0.646 C -4.83,2.96 -3.25,2.611 -1.734,3.205 -1.057,3.47 -0.459,3.16 -0.313,2.371 -0.177,1.63 -0.112,0.876 0,0"
             style="fill:#393536;fill-opacity:1;fill-rule:nonzero;stroke:none"
             id="path39116" />
        </g>
        <g
           id="g39118"
           transform="translate(506.9863,352.7941)">
          <path
             d="M 0,0 C 0.259,1.176 0.084,2.34 -0.033,3.521 -0.146,4.657 0.411,5.263 1.464,5.784 4.39,7.231 7.5,8.27 10.367,9.839 10.693,10.017 10.99,10.176 11.312,9.88 11.61,9.604 11.593,9.241 11.479,8.906 11.07,7.705 10.558,6.528 10.043,5.387 9.003,3.075 8.181,0.697 7.342,-1.682 7.208,-2.061 7.048,-2.574 6.509,-2.183 5.968,-1.788 5.507,-2.24 5.021,-2.192 3.829,-2.076 2.675,-2.041 1.489,-2.392 0.643,-2.643 0.271,-1.846 0.023,-1.202 -0.111,-0.851 0,-0.404 0,0"
             style="fill:#393536;fill-opacity:1;fill-rule:nonzero;stroke:none"
             id="path39120" />
        </g>
        <g
           id="g39122"
           transform="translate(428.8711,354.3263)">
          <path
             d="m 0,0 c -0.001,-0.875 0.027,-1.75 -0.008,-2.624 -0.042,-1.049 -0.474,-1.44 -1.411,-1.147 -1.218,0.382 -2.337,0.41 -3.532,-0.139 -0.861,-0.396 -1.733,0.014 -2.058,1.013 -0.547,1.673 -1.514,3.158 -1.941,4.895 -0.456,1.856 -1.61,3.481 -2.078,5.359 -0.098,0.392 -0.335,0.821 0.048,1.129 0.366,0.296 0.605,-0.183 0.9,-0.305 C -7.247,7 -4.431,5.782 -1.591,4.616 -0.375,4.117 -0.004,3.649 0,2.274 0.003,1.517 0.001,0.758 0,0"
             style="fill:#393536;fill-opacity:1;fill-rule:nonzero;stroke:none"
             id="path39124" />
        </g>
        <g
           id="g39126"
           transform="translate(468.0078,251.0157)">
          <path
             d="M 0,0 C 0.661,-0.145 1.071,-0.426 1.425,-0.823 2.509,-2.037 3.57,-3.272 4.713,-4.429 5.122,-4.842 5.146,-5.104 4.919,-5.607 3.32,-9.136 -2.332,-10.959 -3.32,-8.34 c -0.369,0.978 -0.599,1.994 -0.995,2.971 -0.403,0.991 0.64,1.757 1.244,2.096 0.661,0.37 0.949,0.887 1.27,1.393 C -1.298,-1.087 -0.405,-0.763 0,0"
             style="fill:#393536;fill-opacity:1;fill-rule:nonzero;stroke:none"
             id="path39128" />
        </g>
        <g
           id="g39130"
           transform="translate(407.6992,303.9113)">
          <path
             d="m 0,0 c -0.32,0.147 -0.593,0.246 -0.841,0.39 -2.823,1.631 -5.789,2.936 -8.91,3.885 -0.478,0.147 -0.883,0.427 -0.937,0.92 -0.058,0.518 0.526,0.56 0.832,0.761 2.034,1.342 4.351,2.094 6.591,2.984 0.59,0.236 1.137,0.533 1.707,0.791 1.545,0.7 2.284,0.576 3.235,-0.814 C 2.328,7.963 3.183,7.28 4.093,6.63 4.829,6.104 5.078,5.1 4.487,4.442 3.22,3.035 1.875,1.698 0.55,0.344 0.397,0.187 0.17,0.104 0,0"
             style="fill:#393536;fill-opacity:1;fill-rule:nonzero;stroke:none"
             id="path39132" />
        </g>
        <g
           id="g39134"
           transform="translate(508.2998,267.7208)">
          <path
             d="m 0,0 c 1.219,-0.594 2.548,0.747 3.771,-0.255 0.107,-0.086 0.379,-0.084 0.508,-0.009 1.353,0.788 1.545,-0.044 1.943,-1.132 1.064,-2.917 2.323,-5.764 3.503,-8.639 0.065,-0.16 0.124,-0.326 0.159,-0.495 0.11,-0.544 0.693,-1.171 0.155,-1.61 -0.414,-0.338 -0.912,0.282 -1.365,0.477 -2.462,1.063 -4.891,2.206 -7.377,3.204 -0.801,0.321 -1.424,0.992 -2.322,1.084 -0.302,0.031 -0.373,0.281 -0.28,0.511 0.61,1.496 -0.056,3.054 0.21,4.59 0.073,0.416 0.108,0.95 0.116,1.423 C -0.965,-0.088 -0.675,0.085 0,0"
             style="fill:#393536;fill-opacity:1;fill-rule:nonzero;stroke:none"
             id="path39136" />
        </g>
        <g
           id="g39138"
           transform="translate(444.8408,240.6173)">
          <path
             d="m 0,0 c -0.85,0.518 -1.593,0.01 -2.347,-0.018 -0.936,-0.034 -1.695,0.795 -2.385,1.496 -0.633,0.642 -0.997,1.469 -1.567,2.165 -0.492,0.599 -1.114,1.107 -1.588,1.745 -0.452,0.607 -0.407,0.944 -0.199,1.507 0.258,0.696 0.423,1.426 0.67,2.128 0.187,0.534 0.477,0.629 1.067,0.37 C -3.345,8.069 -0.304,6.833 2.71,5.534 3.546,5.174 4.253,4.554 5.165,4.315 5.514,4.225 5.809,3.722 5.57,3.482 4.864,2.771 4.95,1.728 4.38,0.987 4.13,0.662 3.849,0.434 3.379,0.383 2.236,0.257 1.043,0.637 0,0"
             style="fill:#393536;fill-opacity:1;fill-rule:nonzero;stroke:none"
             id="path39140" />
        </g>
        <g
           id="g39142"
           transform="translate(406.9473,290.3136)">
          <path
             d="m 0,0 c 0.656,0.075 0.839,-0.309 0.969,-0.7 1.342,-4.063 2.989,-8.007 4.595,-11.967 0.16,-0.395 0.171,-0.625 -0.22,-0.844 -0.554,-0.307 -1.067,-0.693 -1.634,-0.969 -1.51,-0.736 -2.385,0.541 -3.259,1.275 -1.022,0.86 -1.86,1.96 -2.911,2.827 -0.697,0.575 -1.007,1.162 -0.821,2.238 0.348,2.023 0.374,4.111 0.409,6.174 0.011,0.679 0.152,0.997 0.801,1.035 C -1.22,-0.88 -0.658,-0.182 0,0"
             style="fill:#393536;fill-opacity:1;fill-rule:nonzero;stroke:none"
             id="path39144" />
        </g>
        <g
           id="g39146"
           transform="translate(532.6426,336.3761)">
          <path
             d="m 0,0 c -0.029,-2.189 -0.372,-3.99 -0.205,-5.823 0.044,-0.493 -0.188,-1.061 -0.919,-1.281 -0.861,-0.26 -1.695,-1.137 -2.458,-1.046 -0.745,0.088 -0.614,1.383 -0.923,2.126 -1.42,3.41 -2.749,6.858 -4.142,10.28 -0.291,0.715 -0.35,1.2 0.549,1.452 0.487,0.136 0.986,0.351 1.382,0.655 0.657,0.505 1.255,0.344 1.717,-0.141 C -3.635,4.788 -2.036,3.616 -0.638,2.233 0.028,1.575 0.168,0.591 0,0"
             style="fill:#393536;fill-opacity:1;fill-rule:nonzero;stroke:none"
             id="path39148" />
        </g>
        <g
           id="g39150"
           transform="translate(403.5605,336.2902)">
          <path
             d="M 0,0 C -0.112,0.822 0.486,1.665 1.192,2.589 2.343,4.097 4.064,4.921 5.271,6.325 5.597,6.702 5.879,6.774 6.302,6.452 6.513,6.292 6.845,6.295 7.119,6.215 8.993,5.664 9.075,5.395 8.388,3.597 7.347,0.873 6.379,-1.879 5.412,-4.63 5.027,-5.725 4.35,-6.699 4.137,-7.862 4.068,-8.237 3.813,-8.314 3.513,-8.081 2.859,-7.574 2.17,-7.243 1.305,-7.211 0.835,-7.193 0.478,-6.789 0.504,-6.234 0.599,-4.264 0.152,-2.335 0,0"
             style="fill:#393536;fill-opacity:1;fill-rule:nonzero;stroke:none"
             id="path39152" />
        </g>
        <g
           id="g39154"
           transform="translate(491.0312,377.6857)">
          <path
             d="M 0,0 C 0.74,-0.067 1.693,-0.167 2.656,0.193 3.176,0.389 3.634,0.066 4.139,-0.383 5.721,-1.79 6.732,-3.684 8.352,-5.048 9.076,-5.659 8.851,-6.461 8.516,-7.273 7.601,-9.495 7.644,-9.469 5.383,-8.569 c -2.308,0.917 -4.569,1.926 -6.787,3.04 -1.02,0.511 -2.2,0.615 -3.177,1.282 -0.42,0.287 -0.613,0.465 -0.294,0.925 0.093,0.134 0.099,0.332 0.134,0.502 0.349,1.713 1.19,2.844 3.142,2.726 C -1.146,-0.121 -0.686,-0.044 0,0"
             style="fill:#393536;fill-opacity:1;fill-rule:nonzero;stroke:none"
             id="path39156" />
        </g>
        <g
           id="g39158"
           transform="translate(499.9424,246.965)">
          <path
             d="m 0,0 c -0.065,-0.184 -0.079,-0.388 -0.187,-0.503 -1.53,-1.619 -2.677,-3.54 -4.129,-5.219 -0.504,-0.582 -1.458,-0.687 -1.904,-0.548 -1.803,0.566 -3.653,0.07 -5.458,0.453 -0.629,0.133 -1.076,0.151 -1.277,0.796 -0.241,0.773 -0.493,1.542 -0.716,2.319 -0.131,0.456 0.005,0.844 0.508,0.935 0.934,0.171 1.706,0.717 2.561,1.065 2.81,1.142 5.468,2.629 8.318,3.694 0.66,0.247 0.963,0.157 1.21,-0.436 C -0.719,1.701 -0.357,0.85 0,0"
             style="fill:#393536;fill-opacity:1;fill-rule:nonzero;stroke:none"
             id="path39160" />
        </g>
        <g
           id="g39162"
           transform="translate(442.4834,377.8741)">
          <path
             d="M 0,0 C 1.804,-0.444 3.655,-0.379 5.495,-0.43 5.962,-0.442 6.36,-0.608 6.469,-1.019 6.681,-1.825 7.122,-2.49 7.516,-3.202 7.922,-3.938 7.396,-4.417 6.761,-4.699 3.76,-6.031 0.75,-7.345 -2.258,-8.66 -2.47,-8.753 -2.705,-8.794 -2.915,-8.89 c -1.806,-0.83 -1.612,-0.73 -2.495,0.953 -0.922,1.758 -0.102,2.89 0.921,3.991 0.942,1.015 1.903,2.001 2.705,3.138 C -1.373,-0.225 -0.811,0.199 0,0"
             style="fill:#393536;fill-opacity:1;fill-rule:nonzero;stroke:none"
             id="path39164" />
        </g>
        <g
           id="g39166"
           transform="translate(532.6592,283.7394)">
          <path
             d="m 0,0 c 0,-0.757 0.048,-1.519 -0.013,-2.271 -0.066,-0.814 -0.412,-1.428 -1.099,-2.02 -1.21,-1.039 -2.678,-1.785 -3.645,-3.107 -0.487,-0.666 -1.066,-0.683 -1.834,-0.406 -2.338,0.843 -2.425,0.835 -1.564,3.137 1.313,3.514 2.862,6.938 3.908,10.553 0.172,0.593 0.648,0.925 1.196,0.512 C -2.686,6.124 -2.306,6.142 -1.937,6.013 -0.098,5.37 -0.392,3.66 -0.13,2.268 0.008,1.536 -0.105,0.757 -0.105,0 Z"
             style="fill:#393536;fill-opacity:1;fill-rule:nonzero;stroke:none"
             id="path39168" />
        </g>
        <g
           id="g39170"
           transform="translate(525.5488,324.6456)">
          <path
             d="M 0,0 -0.164,0.401 C 0.376,0.439 0.045,0.169 0,0 m -89.711,-80.683 c -0.752,1.199 -0.752,1.199 -0.208,3.032 1.266,-1.481 1.266,-1.481 0.208,-3.032 M 2.221,15.862 c -1.729,2.765 -4.445,3.873 -7.475,4.452 -0.1,-0.341 -0.392,-0.653 -0.126,-1.1 0.783,-0.54 1.806,0.207 2.668,-0.35 0.445,-0.819 -0.37,-1.155 -0.72,-1.602 -2.3,-2.945 -4.384,-6.083 -7.364,-8.44 -0.287,-0.227 -0.652,-0.547 -0.695,-0.862 -0.483,-3.535 -3.927,-5.629 -4.208,-9.126 0.631,0.071 0.729,1.103 1.5,1.327 0.05,-0.127 0.176,-0.294 0.134,-0.368 -0.311,-0.563 -0.854,-1.009 -0.771,-1.758 0.053,-0.463 0.086,-0.968 -0.358,-1.282 -2.893,-2.046 -4.504,-5.234 -6.903,-7.718 -1.77,-1.833 -2.449,-4.418 -4.301,-6.19 -0.131,-0.125 -0.319,-0.342 -0.287,-0.464 0.769,-2.837 -1.228,-4.683 -2.42,-6.812 -1.135,-2.025 -2.067,-4.174 -3.737,-5.868 -0.512,-0.519 -1.105,-1.044 -1.095,-1.897 0.017,-1.367 -0.276,-2.51 -1.914,-2.763 -0.187,-0.028 -0.392,-0.412 -0.461,-0.665 -0.868,-3.219 -2.961,-5.856 -4.336,-8.884 0.403,-0.043 0.665,-0.071 1.02,-0.11 -0.318,-0.387 -0.533,-0.872 -0.901,-1.06 -2,-1.02 -2.962,-2.83 -3.564,-4.811 -0.65,-2.145 -1.566,-4.003 -3.158,-5.672 -0.737,-0.773 -1.726,-2.031 -0.979,-3.471 -1.208,-0.637 -2.249,-1.184 -3.919,-2.066 1.193,1.885 -0.446,2.584 -0.533,4.095 -1.292,-0.912 -2.189,-2.16 -3.812,-2.642 -0.769,1.957 -2.708,2.452 -4.543,3.288 -0.463,-0.348 -0.967,-0.726 -1.555,-1.167 -0.801,0.557 -1.55,1.077 -2.224,1.546 -0.974,-0.198 -1.21,-1.037 -1.787,-1.483 -1.126,-0.87 -2.593,-1.24 -3.621,-0.395 -1.114,0.915 -2.284,0.974 -3.506,1.231 -0.719,0.153 -1.386,0.514 -2.169,0.295 -0.335,-0.092 -0.714,-0.028 -1.074,-0.035 0.172,-1.831 -1.617,-0.034 -1.833,-0.973 -0.257,-1.115 -1.704,-1.42 -1.841,-2.224 -0.335,-1.942 -1.981,-2.821 -2.984,-4.142 -1.496,-1.969 -2.616,-4.259 -4.591,-5.877 -0.629,-0.515 -1.098,-1.213 -1.288,-2.116 -0.616,-2.941 -2.611,-5.621 -1.587,-8.872 0.246,-0.781 -1.124,-1.249 -0.44,-2.29 0.315,-0.48 0.524,-1.005 0.808,-1.48 1.129,0.277 2.294,0.454 3.469,0.554 0.959,0.082 1.92,0.102 2.881,0.079 -1.419,0.55 -3.078,0.333 -4.188,1.323 0.047,1.249 0.147,2.263 1.253,2.962 1.052,-0.113 1.813,-1.147 3.191,-1.084 1.315,0.059 1.638,-1.815 2.404,-2.815 0.132,-0.173 0.092,-0.35 -0.043,-0.544 0.921,-0.084 1.84,-0.194 2.754,-0.315 1.529,-0.202 3.054,-0.432 4.579,-0.662 0.313,-0.047 0.624,-0.094 0.937,-0.139 0.039,-0.005 0.077,-0.011 0.116,-0.016 0.025,-10e-4 0.067,-0.003 0.131,-0.007 0.927,-0.055 1.855,-0.19 2.779,-0.281 0.068,-0.007 0.134,-0.013 0.201,-0.019 1.294,-0.018 2.592,-0.09 3.898,-0.236 0.017,0 0.035,0.002 0.054,0.002 -10e-4,-0.002 -10e-4,-0.005 -10e-4,-0.007 0.317,-0.036 0.635,-0.076 0.954,-0.121 0.2,-0.027 0.388,-0.08 0.568,-0.152 3.397,-0.31 6.795,-0.612 10.188,-0.956 1.102,0.329 2.193,0.244 3.1,-0.326 0.966,-0.107 1.93,-0.219 2.895,-0.335 1.012,1.35 1.744,2.875 2.448,4.427 1.17,2.578 2.616,4.917 5.015,6.64 2.439,1.751 4.486,3.988 6.509,6.2 6.995,7.647 13.345,15.787 18.331,24.908 1.593,2.914 3.133,5.872 4.6,8.844 3.235,6.554 6.137,13.284 8.263,20.29 1.384,4.562 2.922,9.1 3.622,13.848 -0.117,0.006 -0.233,0.009 -0.349,0.01 -1.357,-2.253 -1.586,-4.945 -2.851,-7.254 -0.491,-0.896 -0.744,-1.89 -1.755,-2.512 1.492,3.85 1.976,8.003 4.497,11.354 -0.41,0.524 0,0.854 0.286,1.215 0.113,-0.148 0.253,-0.263 0.42,-0.345 l 0.266,0.025 c 1.338,3.312 1.558,6.876 2.324,10.318 -1.088,0.14 1.253,3.244 -0.796,5.928"
             style="fill:#aa4222;fill-opacity:1;fill-rule:nonzero;stroke:none"
             id="path39172" />
        </g>
        <g
           id="g39174"
           transform="translate(522.8369,343.5099)">
          <path
             d="m 0,0 c -0.862,0.557 -1.885,-0.19 -2.668,0.35 -0.266,0.447 0.026,0.758 0.126,1.1 -1.197,-0.674 -2.471,-1.243 -3.578,-2.041 -4.526,-3.262 -9.053,-6.521 -13.343,-10.102 -3.076,-2.569 -5.82,-5.493 -8.92,-8.041 -2.657,-2.185 -5.055,-4.684 -7.576,-7.037 -3.75,-3.498 -7.519,-6.975 -11.256,-10.486 -3.532,-3.317 -7.028,-6.674 -10.554,-9.999 -3.735,-3.523 -7.731,-6.797 -10.927,-10.846 -1.733,-2.194 -3.662,-4.241 -5.521,-6.28 -3.813,-4.183 -7.391,-8.386 -9.649,-13.66 -1.979,-4.619 -3.629,-9.44 -6.999,-13.35 -0.275,-0.319 -0.365,-0.858 -0.407,-1.308 -0.2,-2.145 -0.537,-4.298 -0.483,-6.44 0.059,-2.288 0.198,-4.576 1.076,-6.56 0.856,0.376 1.746,0.671 2.662,0.896 -0.284,0.476 -0.493,1 -0.808,1.481 -0.684,1.041 0.686,1.509 0.44,2.29 -1.024,3.251 0.971,5.93 1.587,8.872 0.19,0.903 0.659,1.6 1.288,2.116 1.975,1.618 3.095,3.907 4.591,5.877 1.003,1.32 2.648,2.2 2.983,4.142 0.138,0.803 1.584,1.109 1.842,2.224 0.216,0.939 2.005,-0.858 1.833,0.973 0.36,0.007 0.739,-0.058 1.073,0.035 0.784,0.219 1.451,-0.143 2.169,-0.295 1.223,-0.258 2.393,-0.316 3.507,-1.231 1.028,-0.845 2.494,-0.475 3.621,0.395 0.577,0.446 0.813,1.284 1.787,1.483 0.674,-0.469 1.423,-0.99 2.224,-1.546 0.588,0.441 1.092,0.819 1.555,1.167 1.835,-0.836 3.774,-1.331 4.543,-3.288 1.623,0.482 2.52,1.73 3.812,2.642 0.087,-1.512 1.726,-2.21 0.532,-4.096 1.671,0.882 2.711,1.43 3.919,2.067 -0.746,1.439 0.243,2.698 0.98,3.471 1.592,1.669 2.508,3.527 3.158,5.671 0.602,1.982 1.564,3.791 3.564,4.812 0.368,0.188 0.583,0.673 0.901,1.06 -0.355,0.039 -0.617,0.067 -1.021,0.11 1.375,3.027 3.469,5.665 4.337,8.884 0.069,0.253 0.274,0.636 0.461,0.665 1.638,0.253 1.931,1.396 1.914,2.762 -0.01,0.854 0.582,1.378 1.095,1.898 1.67,1.693 2.602,3.843 3.736,5.868 1.193,2.129 3.19,3.975 2.421,6.812 -0.032,0.122 0.156,0.338 0.286,0.463 1.853,1.773 2.532,4.358 4.302,6.191 2.399,2.483 4.01,5.672 6.903,7.718 0.444,0.314 0.411,0.819 0.358,1.282 -0.083,0.749 0.46,1.195 0.77,1.758 0.042,0.074 -0.084,0.241 -0.133,0.368 -0.771,-0.225 -0.869,-1.256 -1.5,-1.327 0.281,3.497 3.725,5.591 4.208,9.126 0.043,0.315 0.408,0.634 0.695,0.862 2.98,2.356 5.063,5.495 7.364,8.439 C -0.37,-1.155 0.445,-0.819 0,0"
             style="fill:#da874d;fill-opacity:1;fill-rule:nonzero;stroke:none"
             id="path39176" />
        </g>
        <g
           id="g39178"
           transform="translate(526.2422,324.2618)">
          <path
             d="m 0,0 c 0.191,-0.46 -0.006,-0.847 -0.232,-1.228 -0.12,-0.01 -0.238,-0.021 -0.356,-0.033 -0.149,0.101 -0.276,0.225 -0.379,0.373 v -0.016 l 0.7,0.879 z"
             style="fill:#aa4222;fill-opacity:1;fill-rule:nonzero;stroke:none"
             id="path39180" />
        </g>
        <g
           id="g39182"
           transform="translate(526.0098,323.0343)">
          <path
             d="m 0,0 c 0.158,-0.478 -0.077,-0.868 -0.282,-1.266 -0.116,0.006 -0.233,0.009 -0.349,0.01 -0.318,0.499 -0.009,0.859 0.276,1.223 C -0.237,-0.021 -0.119,-0.011 0,0"
             style="fill:#aa4222;fill-opacity:1;fill-rule:nonzero;stroke:none"
             id="path39184" />
        </g>
        <g
           id="g39186"
           transform="translate(443.7871,240.1818)">
          <path
             d="m 0,0 c 0.135,0.194 0.175,0.371 0.043,0.544 -0.767,1 -1.089,2.874 -2.404,2.814 C -3.739,3.296 -4.5,4.33 -5.553,4.442 -6.658,3.744 -6.758,2.729 -6.806,1.48 -5.695,0.491 -4.036,0.708 -2.617,0.158 -1.743,0.137 -0.871,0.08 0,0"
             style="fill:#da874d;fill-opacity:1;fill-rule:nonzero;stroke:none"
             id="path39188" />
        </g>
        <g
           id="g39190"
           transform="translate(525.6543,323.0011)">
          <path
             d="m 0,0 c -0.284,-0.364 -0.594,-0.724 -0.275,-1.223 -1.358,-2.253 -1.586,-4.945 -2.852,-7.254 -0.49,-0.895 -0.743,-1.889 -1.755,-2.511 1.493,3.852 1.978,8.009 4.503,11.361 C -0.276,0.225 -0.149,0.101 0,0"
             style="fill:#da874d;fill-opacity:1;fill-rule:nonzero;stroke:none"
             id="path39192" />
        </g>
        <g
           id="g39194"
           transform="translate(435.6299,246.9943)">
          <path
             d="M 0,0 C 1.266,-1.48 1.266,-1.48 0.208,-3.031 -0.544,-1.833 -0.544,-1.833 0,0"
             style="fill:#da874d;fill-opacity:1;fill-rule:nonzero;stroke:none"
             id="path39196" />
        </g>
        <g
           id="g39198"
           transform="translate(525.9756,324.2365)">
          <path
             d="m 0,0 -0.7,-0.879 c -0.428,0.537 0.006,0.871 0.293,1.239 L -0.431,0.358 C -0.316,0.204 -0.173,0.085 0,0"
             style="fill:#da874d;fill-opacity:1;fill-rule:nonzero;stroke:none"
             id="path39200" />
        </g>
        <g
           id="g39202"
           transform="translate(525.5684,324.5968)">
          <path
             d="m 0,0 c -0.062,0.15 -0.123,0.3 -0.184,0.45 0.599,0.042 0.126,-0.295 0.161,-0.452 z"
             style="fill:#da874d;fill-opacity:1;fill-rule:nonzero;stroke:none"
             id="path39204" />
        </g>
        <g
           id="g39206"
           transform="translate(461.5596,297.2374)">
          <path
             d="m 0,0 c -0.496,-2.232 -0.809,-4.476 -0.689,-6.754 0.021,-0.418 0.338,-0.852 1.22,-0.479 C -0.311,-4.905 0.974,-2.461 0,0 m -11.182,-17.644 c -0.436,-0.075 -0.681,0.093 -0.835,0.526 -1.152,3.251 -2.046,6.546 -2.515,9.986 -0.565,4.138 0.315,8.142 1.053,12.097 0.779,4.171 2.364,8.178 3.779,12.208 1.889,5.385 4.151,10.611 6.31,15.882 0.932,2.274 2.106,4.462 3.31,6.61 2.572,4.59 5.035,9.237 7.457,13.907 0.405,0.782 0.683,1.715 1.697,1.996 C 9.852,54.571 8.526,54.402 8.324,53.759 7.524,51.199 6.483,48.717 5.63,46.172 4.85,43.842 4.384,41.388 3.418,39.143 2.805,37.718 2.613,36.377 2.581,34.795 c 0.718,0.546 0.836,1.187 1.021,1.847 0.154,0.547 0.23,1.369 1.437,1.314 -0.128,-1.849 -0.251,-3.622 -0.375,-5.396 0.49,1.969 1.683,3.593 2.19,5.476 0.271,1.01 0.121,2.488 1.736,2.781 0.291,0.053 0.242,0.511 0.294,0.804 0.092,0.517 0.049,1.128 0.316,1.529 1.276,1.912 1.505,4.053 1.623,6.255 0.074,1.384 0.3,2.757 1.755,3.683 1.732,-1.733 0.911,-3.824 1.325,-5.796 -1.423,0.302 -0.435,1.671 -1.474,2.137 -0.257,-0.699 -0.588,-1.287 -0.682,-1.912 -0.364,-2.448 -0.953,-4.928 -0.25,-7.373 0.315,-1.092 0.434,-1.94 -1.038,-2.914 2.296,-0.005 0.94,-2.549 2.712,-2.726 0.98,2.133 -0.275,4.309 0.415,6.642 0.737,-2.788 0.591,-5.515 2.184,-7.753 0.277,-0.39 0.288,-0.852 0.237,-1.311 -0.276,-2.474 0.411,-4.953 -0.052,-7.428 -0.069,-0.375 -0.047,-0.764 0.403,-0.853 0.525,0.112 0.317,0.676 0.652,0.897 1.835,-3.605 3.886,-7.172 4.32,-11.259 0.445,-4.194 0.271,-8.419 -0.343,-12.661 -0.473,0.406 -0.281,1.555 -1.481,1.04 -0.783,-2.303 0.147,-5.064 -1.415,-7.274 -0.45,-0.291 -1.108,0.16 -1.497,-0.583 0.516,-1.074 0.256,-2.232 0.003,-3.333 -0.593,-0.272 -0.963,-0.107 -1.333,0.231 -1.106,1.012 -1.416,2.423 -1.849,3.748 -0.319,0.977 -0.098,2.179 -0.712,3 -0.66,0.881 -0.094,1.904 -0.593,2.758 -0.247,-2.198 -0.439,-4.362 -1.809,-6.35 C 9.489,-5.959 8.41,-5.574 8.035,-6.743 7.617,-8.047 6.435,-8.524 5.611,-9.392 4.518,-8.871 4.86,-7.561 4.044,-6.923 2.911,-8.937 3.897,-11.394 2.348,-13.236 c -0.984,0.782 -1.176,1.892 -1.831,2.692 -0.904,-0.34 -1.966,0.066 -2.663,0.958 -1.768,-1.435 -2.154,0.986 -3.284,1.157 -0.106,-0.266 -0.213,-0.533 -0.302,-0.759 -0.311,0.067 -0.263,0.567 -0.789,0.387 0.336,-1.532 -1.349,-2.355 -1.213,-4.118 -0.926,1.355 -0.814,2.898 -1.995,3.676 -0.485,-0.172 -0.879,-0.429 -0.855,-0.797 0.087,-1.313 -0.247,-2.667 -0.07,-3.888 0.201,-1.386 -0.06,-2.519 -0.528,-3.716"
             style="fill:#da874d;fill-opacity:1;fill-rule:nonzero;stroke:none"
             id="path39208" />
        </g>
        <g
           id="g39210"
           transform="translate(451.0557,279.3722)">
          <path
             d="m 0,0 -0.104,-0.141 0.159,-0.025 z m 24.521,64.254 c -0.342,-0.284 -0.344,-0.596 -0.097,-0.941 0.343,0.286 0.333,0.598 0.097,0.941 M -0.678,0.222 C -0.21,1.418 0.051,2.551 -0.15,3.938 -0.327,5.158 0.007,6.513 -0.08,7.825 -0.104,8.193 0.29,8.45 0.774,8.622 1.956,7.845 1.844,6.301 2.77,4.946 2.634,6.709 4.319,7.532 3.982,9.064 4.509,9.244 4.461,8.744 4.771,8.677 4.861,8.903 4.968,9.17 5.074,9.437 6.204,9.266 6.59,6.844 8.357,8.279 c 0.698,-0.891 1.76,-1.298 2.664,-0.958 0.655,-0.8 0.847,-1.91 1.831,-2.692 1.549,1.843 0.563,4.3 1.696,6.313 0.816,-0.637 0.473,-1.948 1.567,-2.468 0.823,0.867 2.006,1.344 2.424,2.648 0.375,1.169 1.454,0.784 2.266,0.758 1.37,1.988 1.562,4.152 1.809,6.35 0.499,-0.854 -0.067,-1.876 0.593,-2.757 0.614,-0.822 0.393,-2.024 0.712,-3 0.433,-1.326 0.743,-2.737 1.849,-3.748 0.37,-0.338 0.74,-0.503 1.333,-0.232 0.253,1.101 0.513,2.259 -0.003,3.333 0.389,0.743 1.047,0.292 1.497,0.583 1.562,2.21 0.632,4.971 1.415,7.275 1.2,0.514 1.008,-0.635 1.481,-1.04 0.613,4.241 0.788,8.466 0.343,12.661 -0.434,4.087 -2.485,7.653 -4.32,11.258 -0.335,-0.221 -0.127,-0.785 -0.652,-0.897 -0.45,0.089 -0.472,0.479 -0.403,0.854 0.463,2.474 -0.224,4.954 0.052,7.427 0.051,0.459 0.04,0.921 -0.238,1.311 -1.592,2.238 -1.446,4.966 -2.183,7.753 -0.691,-2.333 0.565,-4.509 -0.415,-6.642 -1.772,0.177 -0.416,2.721 -2.712,2.727 1.472,0.973 1.352,1.821 1.038,2.913 -0.703,2.445 -0.114,4.926 0.25,7.373 0.094,0.625 0.425,1.214 0.682,1.912 1.039,-0.466 0.051,-1.835 1.474,-2.137 -0.414,1.972 0.406,4.064 -1.325,5.796 -1.455,-0.926 -1.681,-2.299 -1.755,-3.682 -0.118,-2.203 -0.348,-4.344 -1.623,-6.255 -0.267,-0.402 -0.225,-1.013 -0.316,-1.53 -0.052,-0.293 -0.003,-0.751 -0.294,-0.803 -1.615,-0.293 -1.465,-1.772 -1.737,-2.782 -0.506,-1.882 -1.699,-3.506 -2.189,-5.476 0.124,1.774 0.247,3.548 0.375,5.396 -1.207,0.055 -1.283,-0.766 -1.438,-1.314 -0.184,-0.659 -0.302,-1.301 -1.02,-1.847 0.032,1.582 0.224,2.923 0.837,4.348 0.966,2.245 1.432,4.699 2.212,7.029 0.853,2.545 1.894,5.027 2.694,7.587 0.202,0.644 1.527,0.813 0.75,1.81 0.064,0.306 0.128,0.613 0.192,0.92 1.474,-1.364 3.318,-1.796 5.224,-2.067 0.14,-0.019 0.282,-0.021 0.423,-0.031 0.941,-0.156 0.91,-0.791 0.789,-1.522 -0.308,-1.85 -0.389,-3.709 -0.096,-5.572 0.15,-2.051 0.365,-4.086 1.413,-5.922 l 0.022,-0.049 c 0.005,-0.47 -0.326,-1.05 0.417,-1.282 l 0.032,-0.05 c -0.25,-0.614 0.016,-1.155 0.186,-1.738 1.77,-6.087 3.189,-12.246 4.031,-18.542 0.224,-1.673 -0.178,-3.364 0.676,-5.058 1.076,-2.133 1.117,-4.579 0.995,-6.975 -0.025,-0.481 -0.305,-1.071 0.37,-1.383 C 34.249,23.867 34.247,23.57 34.245,23.273 33.992,20.047 33.752,16.819 33.479,13.595 33.402,12.706 33.262,11.827 33.084,10.942 32.586,8.455 32.045,5.997 31.119,3.626 30.874,2.999 31.467,2.934 31.935,2.912 31.2,0.394 29.96,-1.906 28.826,-4.251 28.218,-5.509 28.062,-6.77 28.192,-8.184 c 0.255,-2.774 0.339,-5.567 0.153,-8.36 -0.052,-0.781 -0.222,-1.504 -0.668,-2.131 -0.97,-1.364 -1.574,-2.876 -2.022,-4.481 -1.057,-3.797 -3.62,-6.535 -6.575,-8.919 -1.471,-1.186 -3.205,-1.606 -4.872,-0.251 -0.606,0.492 -1.665,0.449 -1.812,1.491 1.023,-0.082 1.396,0.27 1.003,1.322 -0.278,0.748 -0.82,1.3 -1.054,2.142 -0.934,3.347 -2.144,6.616 -3.243,9.89 -0.566,-0.07 -0.559,-0.598 -0.908,-0.746 -0.548,3.23 -2.396,6.032 -3.048,9.226 -0.181,0.882 -0.836,1.426 -1.379,2.038 -1.498,1.693 -2.734,3.565 -3.913,5.484 -0.333,0.541 -0.46,1.101 -0.532,1.701"
             style="fill:#aa4222;fill-opacity:1;fill-rule:nonzero;stroke:none"
             id="path39212" />
        </g>
        <g
           id="g39214"
           transform="translate(459.25,261.1456)">
          <path
             d="m 0,0 c 0.349,0.147 0.342,0.676 0.907,0.745 1.1,-3.273 2.31,-6.543 3.243,-9.89 0.235,-0.841 0.777,-1.393 1.055,-2.141 0.393,-1.053 0.02,-1.404 -1.004,-1.322 -3.337,1.473 -5.621,5.669 -4.41,8.982 C 0.281,-2.282 -0.661,-1.146 0,0"
             style="fill:#da874d;fill-opacity:1;fill-rule:nonzero;stroke:none"
             id="path39216" />
        </g>
        <g
           id="g39218"
           transform="translate(485.3076,303.5353)">
          <path
             d="m 0,0 c -0.675,0.312 -0.395,0.902 -0.37,1.383 0.122,2.396 0.081,4.842 -0.995,6.975 -0.854,1.694 -0.452,3.385 -0.676,5.058 -0.842,6.296 -2.261,12.455 -4.031,18.542 -0.17,0.583 -0.436,1.124 -0.186,1.738 0.794,-0.25 0.876,-1.017 1.05,-1.624 1.114,-3.869 2.169,-7.754 2.936,-11.711 0.606,-3.129 1.023,-6.295 2.011,-9.349 C -0.02,10.268 -0.524,9.246 -0.216,8.564 1.076,5.706 0.053,2.853 0,0"
             style="fill:#da874d;fill-opacity:1;fill-rule:nonzero;stroke:none"
             id="path39220" />
        </g>
        <g
           id="g39222"
           transform="translate(482.9902,282.2843)">
          <path
             d="M 0,0 C -0.468,0.021 -1.061,0.087 -0.815,0.714 0.11,3.085 0.651,5.543 1.149,8.03 1.327,8.915 1.468,9.794 1.544,10.683 1.817,13.907 2.058,17.135 2.311,20.361 2.81,19.045 2.984,17.676 2.9,16.281 2.75,13.808 2.688,11.319 2.36,8.868 1.986,6.072 1.367,3.308 0.84,0.533 0.757,0.099 0.428,-0.055 0,0"
             style="fill:#da874d;fill-opacity:1;fill-rule:nonzero;stroke:none"
             id="path39224" />
        </g>
        <g
           id="g39226"
           transform="translate(477.0098,351.1398)">
          <path
             d="m 0,0 c -0.141,0.01 -0.283,0.012 -0.422,0.031 -1.907,0.27 -3.751,0.703 -5.225,2.067 -0.824,0.328 -0.633,0.793 -0.034,1.058 0.743,0.328 1.562,0.482 2.336,0.707 0.364,0.451 -0.731,0.602 -0.197,1.073 C -1.086,4.148 -0.174,2.879 0,0"
             style="fill:#da874d;fill-opacity:1;fill-rule:nonzero;stroke:none"
             id="path39228" />
        </g>
        <g
           id="g39230"
           transform="translate(478.5791,338.6124)">
          <path
             d="M 0,0 C -1.049,1.836 -1.264,3.871 -1.413,5.922 -1.124,5.904 -0.731,5.997 -0.644,5.631 -0.197,3.782 0.59,1.968 0,0"
             style="fill:#da874d;fill-opacity:1;fill-rule:nonzero;stroke:none"
             id="path39232" />
        </g>
        <g
           id="g39234"
           transform="translate(479.0176,337.2814)">
          <path
             d="M 0,0 C -0.743,0.231 -0.412,0.812 -0.417,1.282 0.314,1.047 0.051,0.489 0,0"
             style="fill:#da874d;fill-opacity:1;fill-rule:nonzero;stroke:none"
             id="path39236" />
        </g>
        <g
           id="g39238"
           transform="translate(461.5596,297.2374)">
          <path
             d="m 0,0 c 0.974,-2.461 -0.311,-4.905 0.531,-7.233 -0.882,-0.373 -1.199,0.061 -1.22,0.479 C -0.809,-4.476 -0.496,-2.232 0,0"
             style="fill:#aa4222;fill-opacity:1;fill-rule:nonzero;stroke:none"
             id="path39240" />
        </g>
        <g
           id="g39242"
           transform="translate(475.5762,343.6261)">
          <path
             d="M 0,0 C 0.236,-0.343 0.246,-0.655 -0.097,-0.94 -0.344,-0.596 -0.342,-0.284 0,0"
             style="fill:#da874d;fill-opacity:1;fill-rule:nonzero;stroke:none"
             id="path39244" />
        </g>
        <g
           id="g39246"
           transform="translate(451.0557,279.3722)">
          <path
             d="m 0,0 0.055,-0.166 -0.159,0.025 z"
             style="fill:#da874d;fill-opacity:1;fill-rule:nonzero;stroke:none"
             id="path39248" />
        </g>
        <g
           id="g39250"
           transform="translate(462.5889,248.8224)">
          <path
             d="M 0,0 C 0.17,-0.55 0.423,-0.773 0.828,-0.682 1.055,-0.63 1.145,-0.378 1.021,-0.186 0.793,0.172 0.439,0.154 0,0 m -7.108,59.123 c 5.18,-4.265 10.163,-8.739 14.846,-13.558 2.044,-2.102 4.327,-4 6.653,-5.794 3.751,-2.896 6.552,-6.391 7.921,-10.99 0.473,-1.587 1,-3.202 1.8,-4.638 2.256,-4.049 1.827,-8.304 1.206,-12.585 C 24.756,7.673 22.718,4.57 19.956,1.885 19.795,1.729 19.58,1.57 19.524,1.375 19.342,0.726 19.221,0.058 19.027,-0.82 15.44,-2.033 11.783,-3.432 8.028,-4.482 5.479,-5.195 2.779,-5.036 0.188,-4.418 c -0.953,0.228 -1.893,0.07 -2.854,0.322 -2.233,0.587 -4.225,1.594 -6.091,2.896 -2.17,1.512 -4.519,2.736 -6.7,4.243 -1.543,1.067 -2.874,2.338 -3.723,3.906 -2.122,3.919 -4.355,7.758 -6.937,11.391 2.214,-0.534 3.322,-2.495 4.91,-3.944 0.543,1.088 -0.349,1.857 -0.391,2.758 0.8,-0.109 0.877,-1.344 1.846,-1.076 0.065,-0.036 0.125,-0.087 0.194,-0.1 0.041,-0.008 0.094,0.041 0.142,0.064 l -0.337,0.02 c -1.392,2.309 -2.906,4.562 -5.143,6.099 -0.896,0.615 -0.809,1.418 -1.523,2.3 0.884,-0.272 1.201,-1.325 1.899,-0.446 0.134,-0.048 0.315,-0.332 0.358,0.071 -0.119,-0.02 -0.238,-0.04 -0.357,-0.06 -1.679,1.536 -1.636,4.191 -3.663,5.547 0.743,-0.417 1.814,-0.405 2.069,-1.235 0.379,-1.231 1.543,-1.387 2.188,-2.133 0.33,0.202 -0.064,0.694 0.423,0.65 0.625,-0.597 1.14,-1.497 1.833,-1.667 1.39,-0.339 2.133,-1.307 2.981,-2.241 0.306,-0.338 0.63,-0.659 1.091,-0.763 1.164,-0.265 1.93,-1.102 2.668,-1.936 0.345,0.266 0.765,0.721 0.875,0.654 1.257,-0.748 2.537,0.106 3.841,-0.057 1.463,-0.183 3.334,0.327 3.639,2.471 0.075,0.534 0.387,0.509 0.803,0.427 0.469,-0.094 0.705,0.115 0.572,0.62 l 0.002,0.046 c 1.129,0.826 -0.586,1.395 -0.155,2.226 0.291,0.486 0.802,0.542 1.336,0.347 1.171,-0.425 1.974,-0.316 2.856,0.834 1.039,1.357 2.989,1.226 4.401,0.083 0.279,-0.224 0.488,-0.599 1.209,-0.272 -0.459,1.331 0.757,1.7 1.613,2.165 0.011,1.146 -0.798,2.087 -0.199,3.112 1.06,-0.383 0.433,-1.42 1.031,-2.097 0.441,0.286 0.997,-0.129 1.539,0.099 -0.51,3.034 -2.142,5.74 -1.805,8.849 0.006,0.052 -0.091,0.114 -0.14,0.172 l 0.001,-0.03 c 0.481,0.562 -0.689,1.035 -0.303,1.421 0.718,0.565 1.18,-0.796 1.699,0.138 -0.869,1.813 -2.1,3.367 -3.569,5.006 0.929,-0.081 1.074,-1.038 1.851,-1.008 -1.616,2.541 -9.677,9.593 -11.84,11.356 -0.707,0.576 -1.73,1.067 -1.436,2.313"
             style="fill:#aa4222;fill-opacity:1;fill-rule:nonzero;stroke:none"
             id="path39252" />
        </g>
        <g
           id="g39254"
           transform="translate(455.3037,271.6359)">
          <path
             d="M 0,0 0.15,0.024 0.071,0.136 Z m -6.704,21.967 c -0.074,0.007 -0.149,0.014 -0.223,0.022 0.038,-0.131 0.064,-0.269 0.124,-0.388 0.019,-0.036 0.14,-0.018 0.214,-0.025 -0.038,0.13 -0.076,0.261 -0.115,0.391 m 0.454,-5.988 c 0.11,1.036 -0.121,1.688 -0.65,2.261 -1.367,1.478 -2.647,3.046 -4.269,4.25 0.267,-1.213 3.734,-5.68 4.919,-6.511 m 20.024,1.134 c 0.049,-0.057 0.146,-0.12 0.14,-0.172 -0.337,-3.109 1.295,-5.814 1.805,-8.848 -0.542,-0.229 -1.098,0.186 -1.539,-0.1 -0.598,0.678 0.029,1.714 -1.031,2.098 -0.599,-1.026 0.21,-1.966 0.2,-3.112 C 12.492,6.514 11.276,6.145 11.735,4.813 11.014,4.486 10.805,4.861 10.526,5.086 9.114,6.229 7.164,6.359 6.125,5.003 5.243,3.853 4.44,3.743 3.27,4.169 2.735,4.363 2.225,4.308 1.934,3.821 1.502,2.99 3.217,2.422 2.088,1.596 1.95,1.634 1.753,1.901 1.725,1.504 1.846,1.52 1.966,1.535 2.086,1.55 2.219,1.045 1.983,0.836 1.514,0.93 1.098,1.012 0.786,1.036 0.711,0.503 0.406,-1.642 -1.465,-2.151 -2.928,-1.969 c -1.303,0.163 -2.584,-0.69 -3.841,0.058 -0.11,0.066 -0.53,-0.389 -0.875,-0.654 -0.738,0.834 -1.503,1.67 -2.668,1.935 -0.46,0.105 -0.785,0.426 -1.091,0.764 -0.848,0.933 -1.591,1.901 -2.981,2.241 -0.693,0.17 -1.208,1.069 -1.833,1.667 -0.487,0.044 -0.093,-0.448 -0.423,-0.65 -0.645,0.746 -1.809,0.902 -2.188,2.132 -0.255,0.83 -1.326,0.819 -2.068,1.236 2.026,-1.357 1.983,-4.011 3.663,-5.547 l -0.001,-0.012 c -0.699,-0.879 -1.016,0.175 -1.9,0.446 0.714,-0.881 0.627,-1.684 1.523,-2.299 2.237,-1.537 3.752,-3.79 5.143,-6.099 l 10e-4,0.016 c -0.969,-0.269 -1.046,0.966 -1.846,1.076 0.042,-0.902 0.934,-1.67 0.391,-2.759 -1.588,1.449 -2.696,3.41 -4.91,3.944 -2.488,2.76 -4.299,5.995 -6.193,9.145 -3.096,5.147 -6.098,10.362 -8.889,15.68 -4.987,9.501 -9.796,19.096 -13.577,29.165 -0.476,1.264 -1.102,2.472 -1.604,3.728 -0.576,1.44 -1.02,2.895 0.465,4.115 0.067,-0.435 0.021,-1.176 0.221,-1.25 0.721,-0.267 1.518,-0.415 2.392,0.025 0.331,-1.949 2.084,-2.57 2.9,-3.94 0.691,-1.163 2.027,-1.433 2.971,-2.214 0.863,-0.712 1.804,-1.229 2.583,-1.828 0.769,0.27 -0.02,1.195 0.96,1.294 0.381,-0.419 0.915,-0.862 1.267,-1.42 1.398,-2.219 2.868,-4.378 4.638,-6.325 0.501,-0.551 0.888,-1.346 1.388,-1.727 0.96,-0.735 0.861,-1.988 1.668,-2.661 1.534,-1.278 2.189,-3.397 4.151,-4.261 0.224,-0.099 0.391,-0.469 0.466,-0.745 0.344,-1.28 1.192,-1.493 2.321,-0.94 0.017,-1.044 -0.036,-2.122 1.065,-2.044 1.424,0.102 -0.225,1.416 0.495,1.911 2.561,0 3.776,-2.175 5.254,-3.563 1.075,-1.008 2.098,-2.22 3.168,-3.335 1.264,-1.315 2.464,-2.219 4.099,-1.393 1.945,-0.84 2.096,-2.805 2.971,-4.252 0.904,0.73 -0.054,1.138 0.2,1.651 3.333,2.169 4.934,-0.743 6.715,-2.416 0.807,-0.046 1.052,0.679 1.793,0.56 0.753,-0.704 1.624,-1.482 2.98,-1.807 0.081,2.311 -1.812,3.477 -2.472,5.214 -0.025,0.066 -0.252,0.056 -0.384,0.083 -0.504,-0.193 0.035,-0.709 -0.324,-0.973 -1.401,0.284 -2.314,1.486 -3.66,2.019 -1.142,0.453 -2.02,1.798 -2.792,2.904 -0.757,1.085 -2.632,1.161 -2.757,3.118 0.943,-0.303 1.366,-1.023 2.107,-1.204 0.586,-0.145 0.781,-1.248 2.031,-0.746 -1.982,1.05 -2.868,2.928 -4.648,3.822 -0.373,0.187 -0.919,0.768 -0.846,0.986 0.536,1.607 -1.012,2.017 -1.586,2.966 -0.262,0.433 -0.811,0.672 -0.867,1.277 2.441,-1.339 4.335,-3.388 6.533,-5.021 1.57,-1.166 3.225,-2.529 4.349,-4.398 0.746,-1.243 1.265,-2.886 2.625,-3.587 1.324,-0.683 1.804,-1.67 1.891,-3.151 1.352,0.235 1.925,-0.492 2.288,-1.568 0.263,-0.778 0.662,-1.489 1.261,-2.108 0.647,-0.668 1.403,-1.236 1.307,-2.461 -0.051,-0.651 0.726,-1.332 1.544,-0.421 -1.164,2.063 -1.164,2.063 0.138,3.683"
             style="fill:#da874d;fill-opacity:1;fill-rule:nonzero;stroke:none"
             id="path39256" />
        </g>
        <g
           id="g39258"
           transform="translate(412.3213,326.1954)">
          <path
             d="m 0,0 c 2.402,0.171 3.204,-0.062 5.484,-1.54 0.549,0.161 0.095,0.663 0.327,0.946 0.525,-0.072 0.905,-0.91 1.568,-0.329 C 7.356,-0.287 6.398,-0.12 6.586,0.646 8.19,-0.664 9.854,-1.063 11.401,-0.405 9.03,2.017 5.296,2.272 3.304,5.112 3.17,4.799 3.088,4.607 2.963,4.317 2.477,4.788 2.06,5.298 1.542,5.666 0.789,6.201 0.156,5.92 -0.156,5.008 -0.797,3.131 -0.797,3.131 -2.707,3.573 -3.077,1.317 -0.487,1.437 0,0 m 56.757,-37.446 c -1.303,-1.62 -1.303,-1.62 -0.139,-3.684 -0.817,-0.911 -1.595,-0.229 -1.544,0.421 0.096,1.226 -0.66,1.793 -1.306,2.461 -0.6,0.619 -0.998,1.33 -1.261,2.108 -0.363,1.077 -0.937,1.803 -2.288,1.569 -0.087,1.48 -0.568,2.467 -1.892,3.15 -1.359,0.701 -1.879,2.345 -2.625,3.587 -1.124,1.869 -2.778,3.232 -4.348,4.398 -2.199,1.633 -4.092,3.682 -6.534,5.021 0.056,-0.605 0.606,-0.844 0.868,-1.276 0.574,-0.95 2.122,-1.36 1.585,-2.966 -0.073,-0.219 0.473,-0.8 0.846,-0.987 1.78,-0.893 2.666,-2.772 4.649,-3.822 -1.25,-0.502 -1.446,0.602 -2.032,0.746 -0.741,0.182 -1.164,0.902 -2.106,1.204 0.125,-1.957 2,-2.033 2.757,-3.118 0.771,-1.105 1.649,-2.451 2.792,-2.903 1.345,-0.533 2.259,-1.735 3.66,-2.02 0.358,0.264 -0.181,0.781 0.323,0.973 0.133,-0.026 0.359,-0.017 0.385,-0.083 0.659,-1.736 2.553,-2.902 2.472,-5.214 -1.357,0.325 -2.228,1.104 -2.981,1.808 -0.74,0.119 -0.985,-0.607 -1.793,-0.561 -1.78,1.673 -3.382,4.585 -6.715,2.416 -0.254,-0.512 0.704,-0.921 -0.2,-1.65 -0.875,1.446 -1.025,3.411 -2.971,4.252 -1.634,-0.826 -2.835,0.077 -4.098,1.392 -1.071,1.116 -2.094,2.328 -3.168,3.335 -1.479,1.388 -2.694,3.564 -5.254,3.564 -0.721,-0.495 0.929,-1.81 -0.495,-1.911 -1.102,-0.078 -1.048,1 -1.066,2.044 -1.129,-0.553 -1.976,-0.34 -2.321,0.939 -0.074,0.276 -0.241,0.647 -0.466,0.745 -1.962,0.864 -2.617,2.984 -4.15,4.261 -0.808,0.674 -0.708,1.927 -1.668,2.661 -0.5,0.382 -0.888,1.177 -1.389,1.728 -1.769,1.947 -3.239,4.105 -4.638,6.325 -0.351,0.557 -0.885,1.001 -1.266,1.42 -0.981,-0.1 -0.192,-1.025 -0.96,-1.294 -0.779,0.598 -1.721,1.115 -2.583,1.828 -0.944,0.78 -2.28,1.051 -2.972,2.214 -0.815,1.37 -2.568,1.99 -2.899,3.939 C -3.908,1.135 -4.705,1.282 -5.427,1.55 -5.627,1.623 -5.58,2.364 -5.647,2.8 l 0.022,0.086 C -3.923,4.071 -2.611,5.7 -0.972,6.99 0.176,7.892 1.785,7.867 2.601,9.154 3.188,9.386 3.623,8.979 4.076,8.756 14.396,3.671 23.98,-2.551 32.964,-9.738 c 3.163,-2.531 6.261,-5.132 9.36,-7.736 -0.185,-0.222 -0.591,-0.481 -0.386,-0.733 0.753,-0.932 0.928,-2.321 1.947,-2.954 1.102,-0.686 1.501,-1.679 1.976,-2.583 -0.367,-0.718 -1.153,-0.111 -1.388,-0.746 0.86,-1.459 1.987,-2.339 4.109,-1.466 -1.065,-1.523 -0.525,-2.301 0.507,-2.864 0.883,-0.483 1.755,-0.905 1.515,-2.181 -0.042,-0.228 0.183,-0.587 0.387,-0.769 1.709,-1.518 2.683,-3.61 4.18,-5.29 -0.047,-0.133 -0.34,-0.313 0.068,-0.36 l -0.079,0.36 c 0.759,0.73 1.152,0.052 1.598,-0.416 z"
             style="fill:#aa4222;fill-opacity:1;fill-rule:nonzero;stroke:none"
             id="path39260" />
        </g>
        <g
           id="g39262"
           transform="translate(467.4922,289.1359)">
          <path
             d="m 0,0 c -1.497,1.68 -2.471,3.771 -4.18,5.29 -0.204,0.182 -0.429,0.54 -0.386,0.769 0.239,1.276 -0.633,1.698 -1.516,2.18 -1.032,0.564 -1.572,1.341 -0.507,2.865 -2.122,-0.874 -3.249,0.006 -4.109,1.465 0.235,0.635 1.021,0.029 1.388,0.746 -0.475,0.905 -0.874,1.898 -1.976,2.583 -1.019,0.633 -1.193,2.023 -1.947,2.955 -0.205,0.251 0.201,0.51 0.386,0.733 l 0.835,-0.776 c -0.294,-1.247 0.73,-1.738 1.437,-2.314 C -8.412,14.733 -0.352,7.682 1.265,5.141 0.487,5.11 0.343,6.067 -0.586,6.148 0.883,4.51 2.113,2.955 2.982,1.143 2.464,0.209 2.002,1.569 1.283,1.005 0.897,0.618 2.067,0.146 1.587,-0.416 1.141,0.052 0.748,0.729 -0.011,0 Z"
             style="fill:#da874d;fill-opacity:1;fill-rule:nonzero;stroke:none"
             id="path39264" />
        </g>
        <g
           id="g39266"
           transform="translate(414.9219,335.3497)">
          <path
             d="m 0,0 c -0.815,-1.287 -2.425,-1.263 -3.572,-2.164 -1.64,-1.29 -2.951,-2.919 -4.654,-4.105 -0.5,1.593 0.509,2.505 1.319,3.731 C -5.133,0.146 -2.616,0.031 0,0"
             style="fill:#da874d;fill-opacity:1;fill-rule:nonzero;stroke:none"
             id="path39268" />
        </g>
        <g
           id="g39270"
           transform="translate(462.5889,248.8224)">
          <path
             d="M 0,0 C 0.439,0.154 0.793,0.172 1.021,-0.186 1.145,-0.378 1.055,-0.63 0.828,-0.682 0.423,-0.773 0.17,-0.55 0,0"
             style="fill:#da874d;fill-opacity:1;fill-rule:nonzero;stroke:none"
             id="path39272" />
        </g>
        <g
           id="g39274"
           transform="translate(438.0703,272.8488)">
          <path
             d="M 0,0 C 0.118,0.02 0.237,0.04 0.356,0.06 0.313,-0.344 0.133,-0.06 -0.001,-0.012 Z"
             style="fill:#da874d;fill-opacity:1;fill-rule:nonzero;stroke:none"
             id="path39276" />
        </g>
        <g
           id="g39278"
           transform="translate(442.8359,264.8849)">
          <path
             d="M 0,0 0.337,-0.021 C 0.289,-0.044 0.236,-0.093 0.195,-0.085 0.126,-0.071 0.065,-0.021 0.001,0.016 Z"
             style="fill:#da874d;fill-opacity:1;fill-rule:nonzero;stroke:none"
             id="path39280" />
        </g>
        <g
           id="g39282"
           transform="translate(449.0537,287.6144)">
          <path
             d="M 0,0 C -1.185,0.831 -4.652,5.299 -4.919,6.512 -3.297,5.308 -2.017,3.739 -0.65,2.262 -0.121,1.688 0.11,1.036 0,0"
             style="fill:#aa4222;fill-opacity:1;fill-rule:nonzero;stroke:none"
             id="path39284" />
        </g>
        <g
           id="g39286"
           transform="translate(448.5996,293.6027)">
          <path
             d="m 0,0 c 0.039,-0.13 0.077,-0.261 0.115,-0.391 -0.074,0.007 -0.195,-0.01 -0.214,0.025 -0.06,0.119 -0.086,0.258 -0.124,0.388 C -0.148,0.015 -0.074,0.007 0,0"
             style="fill:#aa4222;fill-opacity:1;fill-rule:nonzero;stroke:none"
             id="path39288" />
        </g>
        <g
           id="g39290"
           transform="translate(455.3037,271.6359)">
          <path
             d="M 0,0 0.071,0.136 0.15,0.024 Z"
             style="fill:#aa4222;fill-opacity:1;fill-rule:nonzero;stroke:none"
             id="path39292" />
        </g>
        <g
           id="g39294"
           transform="translate(457.3896,273.1857)">
          <path
             d="m 0,0 c -0.12,-0.015 -0.24,-0.03 -0.361,-0.046 0.028,0.398 0.225,0.13 0.363,0.092 z"
             style="fill:#aa4222;fill-opacity:1;fill-rule:nonzero;stroke:none"
             id="path39296" />
        </g>
        <g
           id="g39298"
           transform="translate(412.3213,326.1954)">
          <path
             d="m 0,0 c -0.487,1.437 -3.077,1.317 -2.707,3.573 1.91,-0.442 1.91,-0.442 2.551,1.435 C 0.156,5.92 0.789,6.201 1.542,5.666 2.06,5.298 2.477,4.788 2.963,4.317 3.088,4.607 3.17,4.799 3.304,5.112 5.296,2.272 9.03,2.017 11.401,-0.405 9.854,-1.063 8.19,-0.664 6.586,0.646 6.398,-0.12 7.356,-0.287 7.38,-0.923 6.716,-1.504 6.336,-0.666 5.811,-0.594 5.579,-0.877 6.033,-1.379 5.483,-1.54 3.204,-0.062 2.402,0.171 0,0"
             style="fill:#da874d;fill-opacity:1;fill-rule:nonzero;stroke:none"
             id="path39300" />
        </g>
        <g
           id="g39302"
           transform="translate(467.4814,289.1359)">
          <path
             d="M 0,0 0.079,-0.36 C -0.329,-0.313 -0.036,-0.134 0.011,0 Z"
             style="fill:#da874d;fill-opacity:1;fill-rule:nonzero;stroke:none"
             id="path39304" />
        </g>
        <g
           id="g39306"
           transform="translate(528.9668,268.3263)">
          <path
             d="m 0,0 v -0.367 l -0.058,0.308 z M 33.724,9.77 29.658,13.835 25.445,15.571 9.922,15.519 5.749,13.782 1.737,9.77 1.68,9.632 -4.207,15.519 h -20.011 l -5.412,-5.412 -5.412,5.412 h -13.252 l -1.082,-1.082 -1.083,1.082 H -63.71 l -3.247,-3.248 -3.247,3.248 h -11.035 l -2.827,-2.827 -4.248,2.827 h -10.56 l -3.221,-3.221 -3.22,3.221 h -13.252 l -4.026,-4.025 -2.288,2.288 -4.193,1.737 h -21.752 l -5.931,-5.93 V 1.722 l 2.218,-2.217 v -20.707 l -2.218,-2.218 v -10.916 l 6.741,-5.874 13.253,1.829 18.604,2.297 13.253,0.915 3.287,3.522 2.991,-2.871 11.034,0.458 2.642,2.753 4.185,-2.705 10.731,0.305 3.302,3.397 2.954,-2.989 13.252,-0.156 1.107,1.095 1.065,-1.083 13.104,-0.466 3.139,3.03 3.259,-3.433 13.252,-0.685 0.967,0.918 0.961,-1.054 13.252,-1.22 3.578,3.264 2.593,-2.594 3.386,-1.681 15.522,-2.135 5.767,2.623 4.065,6.2 0.972,3.252 v 33 z"
             style="fill:#100f0d;fill-opacity:1;fill-rule:nonzero;stroke:none"
             id="path39308" />
        </g>
        <g
           id="g39310"
           transform="translate(530.1611,271.2101)">
          <path
             d="m 0,0 -2.543,-2.543 0.175,-0.928 1.505,0.14 0.456,-0.456 0.057,0.058 -0.408,0.408 L 0,-3.25 Z"
             style="fill:#656263;fill-opacity:1;fill-rule:nonzero;stroke:none"
             id="path39312" />
        </g>
        <g
           id="g39314"
           transform="translate(395.1406,268.9923)">
          <path
             d="m 0,0 -1.372,1.108 h -4.594 v -6.705 h 4.594 L 0,-4.488 Z M 4.752,-13.463 H -5.966 v -10.623 h 2.218 v -9.086 L -17,-35.002 v 10.916 h 2.218 V 1.056 H -17 V 8.923 H 4.752 L 8.817,4.857 V -9.398 Z"
             style="fill:#ffffff;fill-opacity:1;fill-rule:nonzero;stroke:none"
             id="path39316" />
        </g>
        <g
           id="g39318"
           transform="translate(421.4346,270.048)">
          <path
             d="m 0,0 v -23.108 h 2.217 v -7.867 l -13.252,-0.915 v 8.782 h 2.218 V 0 h -2.218 V 7.867 H 2.217 V 0 Z"
             style="fill:#ffffff;fill-opacity:1;fill-rule:nonzero;stroke:none"
             id="path39320" />
        </g>
        <g
           id="g39322"
           transform="translate(456.5449,270.048)">
          <path
             d="m 0,0 v -21.225 h 2.218 v -8.276 l -10.731,-0.305 -6.904,16.554 v -16.604 l -11.035,-0.458 v 8.324 h 2.218 V 0 h -2.218 v 7.867 h 10.559 L -8.817,-9.028 V 7.867 H 2.218 V 0 Z"
             style="fill:#ffffff;fill-opacity:1;fill-rule:nonzero;stroke:none"
             id="path39324" />
        </g>
        <g
           id="g39326"
           transform="translate(493.9248,270.048)">
          <path
             d="M 0,0 H -2.217 V -21.225 H 0 v -8.479 l -13.104,0.465 -0.148,8.014 h 2.218 v 6.706 h -6.6 v -6.706 h 2.217 v -8.022 l -13.251,0.156 v 7.866 h 2.217 V 0 h -2.217 v 7.867 h 13.251 V 0 h -2.217 v -6.705 h 6.6 V 0 h -2.218 V 7.867 H 0 Z"
             style="fill:#ffffff;fill-opacity:1;fill-rule:nonzero;stroke:none"
             id="path39328" />
        </g>
        <g
           id="g39330"
           transform="translate(516.5752,257.1652)">
          <path
             d="M 0,0 -1.848,10.666 -3.695,0 Z m 12.514,-10.2 v -9.087 l -13.253,1.221 V -10.2 H 1.479 L 0.897,-5.016 H -4.54 l -0.581,-4.345 h 2.218 v -8.553 l -13.253,0.685 v 7.868 h 2.218 l 4.33,22.244 h -2.218 V 20.75 H 8.185 V 12.883 H 5.967 L 10.296,-10.2 Z"
             style="fill:#ffffff;fill-opacity:1;fill-rule:nonzero;stroke:none"
             id="path39332" />
        </g>
        <g
           id="g39334"
           transform="translate(549.6797,268.9923)">
          <path
             d="M 0,0 -1.372,1.108 H -4.646 L -6.019,0 v -23.18 l 1.373,-1.109 h 3.274 L 0,-23.18 Z M 4.752,8.976 8.817,4.91 v -33 l -4.065,-6.201 -15.523,2.136 -4.012,4.012 V 4.91 l 4.012,4.013 z"
             style="fill:#ffffff;fill-opacity:1;fill-rule:nonzero;stroke:none"
             id="path39336" />
        </g>
        <g
           id="g39338"
           transform="translate(431.9854,283.2238)">
          <path
             d="m 0,0 -1.13,0.468 -2.731,2.731 -0.468,1.129 v 19.656 l 0.468,1.13 2.731,2.732 1.13,0.467 h 10.564 l 1.13,-0.467 2.767,-2.768 0.468,-1.13 V 18.667 L 13.331,17.069 H 7.33 l -1.598,1.598 v 1.098 H 4.831 V 8.55 h 0.901 v 1.097 l 1.598,1.597 h 6.001 L 14.929,9.647 V 4.364 L 14.461,3.235 11.694,0.468 10.564,0 Z"
             style="fill:#ffffff;fill-opacity:1;fill-rule:nonzero;stroke:none"
             id="path39340" />
        </g>
        <g
           id="g39342"
           transform="translate(442.5498,313.1349)">
          <path
             d="m 0,0 h -10.564 l -2.26,-0.937 -2.731,-2.73 -0.936,-2.26 v -19.656 l 0.936,-2.259 2.731,-2.73 2.26,-0.937 H 0 l 2.259,0.937 2.767,2.766 0.936,2.259 v 5.282 l -3.195,3.196 h -6.001 l -0.902,-0.902 v 4.433 l 0.902,-0.901 h 6.001 l 3.195,3.195 v 5.282 l -0.936,2.259 -2.767,2.766 z m 0,-3.195 2.767,-2.767 v -5.282 h -6.001 v 1.796 l -0.935,0.898 h -2.227 l -0.935,-0.898 v -12.614 l 0.935,-0.897 h 2.227 l 0.935,0.897 v 1.797 h 6.001 v -5.282 L 0,-28.313 h -10.564 l -2.732,2.73 v 19.656 l 2.732,2.732 z"
             style="fill:#231f20;fill-opacity:1;fill-rule:nonzero;stroke:none"
             id="path39344" />
        </g>
        <path
           d="m 457.554,303.06 h -0.901 v -11.251 h 0.901 z m -5.734,-19.8 -1.129,0.468 -2.731,2.73 -0.468,1.13 v 19.656 l 0.468,1.13 2.731,2.732 1.124,0.467 10.565,0.036 1.135,-0.468 2.767,-2.767 0.468,-1.13 v -19.62 l -0.468,-1.13 -2.767,-2.766 -1.129,-0.468 z"
           style="fill:#ffffff;fill-opacity:1;fill-rule:nonzero;stroke:none"
           id="path39346" />
        <g
           id="g39348"
           transform="translate(462.375,313.2062)">
          <path
             d="m 0,0 -10.565,-0.036 -2.248,-0.936 -2.731,-2.73 -0.936,-2.26 v -19.656 l 0.936,-2.259 2.731,-2.731 2.259,-0.936 H 0.011 l 2.259,0.936 2.766,2.767 0.937,2.259 v 19.62 l -0.937,2.26 -2.766,2.766 z m -6.386,-22.994 h 2.228 l 0.934,0.754 v 12.936 l -0.934,0.755 H -6.386 L -7.32,-9.304 V -22.24 l 0.934,-0.754 m 6.397,19.8 2.766,-2.768 v -19.62 l -2.766,-2.767 h -10.565 l -2.731,2.731 v 19.656 l 2.731,2.732 z"
             style="fill:#231f20;fill-opacity:1;fill-rule:nonzero;stroke:none"
             id="path39350" />
        </g>
        <path
           d="m 478.899,303.06 h -0.866 v -1.369 h 0.866 z m -9.973,-19.836 -1.598,1.597 v 5.355 l 1.51,1.51 v 11.425 l -1.51,1.51 v 5.355 l 1.598,1.597 h 14.804 l 1.13,-0.467 2.767,-2.768 0.468,-1.13 v -9.702 l -0.468,-1.13 -2.767,-2.767 -1.13,-0.467 h -5.697 v -1.457 l 1.51,-1.509 v -5.355 l -1.598,-1.597 z"
           style="fill:#ffffff;fill-opacity:1;fill-rule:nonzero;stroke:none"
           id="path39352" />
        <g
           id="g39354"
           transform="translate(483.7305,313.17)">
          <path
             d="M 0,0 H -14.805 L -18,-3.194 v -5.355 l 1.51,-1.51 V -21.485 L -18,-22.994 v -5.355 l 3.195,-3.195 h 9.02 l 3.194,3.195 v 5.355 l -1.368,1.368 H 0 l 2.259,0.937 2.767,2.766 0.936,2.259 v 9.702 l -0.936,2.26 -2.767,2.766 z m -7.295,-13.076 h 3.127 l 0.934,0.754 v 3.054 l -0.934,0.755 h -3.127 v -4.563 M 0,-3.194 2.768,-5.962 v -9.702 L 0,-18.431 h -7.295 v -4.563 h 1.51 v -5.355 h -9.02 v 5.355 h 1.509 v 14.445 h -1.509 v 5.355 z"
             style="fill:#231f20;fill-opacity:1;fill-rule:nonzero;stroke:none"
             id="path39356" />
        </g>
        <g
           id="g39358"
           transform="translate(498.3643,283.2238)">
          <path
             d="M 0,0 -0.737,0.737 -1.474,0 h -9.019 l -1.598,1.598 v 5.354 l 1.598,1.598 h 0.205 l 2.37,11.621 -1.226,1.226 v 5.355 l 1.598,1.598 H 6.072 L 7.67,26.752 V 21.397 L 6.444,20.171 8.814,8.55 H 9.02 L 10.617,6.952 V 1.598 L 9.02,0 Z"
             style="fill:#ffffff;fill-opacity:1;fill-rule:nonzero;stroke:none"
             id="path39360" />
        </g>
        <g
           id="g39362"
           transform="translate(504.4365,313.17)">
          <path
             d="m 0,0 h -13.618 l -3.195,-3.194 v -5.355 l 1.199,-1.199 -2.332,-11.433 -1.814,-1.813 v -5.355 l 3.195,-3.195 h 9.019 l 0.737,0.737 0.737,-0.737 h 9.019 l 3.196,3.195 v 5.355 l -1.815,1.813 -2.332,11.434 1.199,1.198 v 5.355 z m -8.085,-17.316 h 2.516 l -1.258,7.258 -1.258,-7.258 M 0,-3.194 v -5.355 h -1.509 l 2.946,-14.445 h 1.51 v -5.355 h -9.019 v 5.355 h 1.509 l -0.396,2.264 h -3.7 l -0.397,-2.264 h 1.51 v -5.355 h -9.019 v 5.355 h 1.509 l 2.947,14.445 h -1.509 v 5.355 z"
             style="fill:#231f20;fill-opacity:1;fill-rule:nonzero;stroke:none"
             id="path39364" />
        </g>
      </g>
    </g>
  </g>
</svg>
